<svg width="716" height="318" viewBox="0 0 716 318" fill="none" xmlns="http://www.w3.org/2000/svg">
<mask id="path-1-outside-1_1393_20" maskUnits="userSpaceOnUse" x="-3" y="-3" width="722" height="324" fill="black">
<rect fill="white" x="-3" y="-3" width="722" height="324"/>
<path d="M76.5062 113H7.8588V1.59411H27.4008V95.7964H76.5062V113ZM102.329 22.4723C96.4827 22.4723 91.4719 17.6285 91.4719 11.6156C91.4719 5.60272 96.4827 0.75898 102.329 0.75898C108.341 0.75898 113.185 5.60272 113.185 11.6156C113.185 17.6285 108.341 22.4723 102.329 22.4723ZM111.181 113H93.6433V32.3268H111.181V113ZM161.491 115.004C147.795 115.004 135.268 110.662 126.917 102.477L134.934 89.7835C140.613 95.6294 151.803 101.141 162.326 101.141C172.848 101.141 178.193 96.6315 178.193 90.2846C178.193 74.4172 129.422 85.7749 129.422 54.8752C129.422 41.6802 140.78 30.3225 161.157 30.3225C174.853 30.3225 185.208 35.1662 192.557 41.6802L185.208 54.0401C180.365 48.5282 171.345 44.3526 161.324 44.3526C152.137 44.3526 146.291 48.5282 146.291 54.2071C146.291 68.5713 195.063 57.8816 195.063 89.9505C195.063 104.148 183.204 115.004 161.491 115.004ZM236.933 115.004C223.404 115.004 216.222 107.655 216.222 94.2932V47.6931H202.86V32.3268H216.222V10.2794H233.759V32.3268H250.128V47.6931H233.759V89.9505C233.759 95.4623 236.432 99.4709 241.442 99.4709C244.783 99.4709 247.956 98.1347 249.293 96.6315L253.468 109.827C250.295 112.833 245.117 115.004 236.933 115.004ZM425.199 113H405.657V30.3225L371.417 113H363.066L328.992 30.3225V113H309.45V1.59411H337.01L367.241 74.9182L397.64 1.59411H425.199V113ZM484.82 115.004C459.266 115.004 443.398 95.7964 443.398 72.5799C443.398 49.5304 459.266 30.3225 484.82 30.3225C510.709 30.3225 526.41 49.5304 526.41 72.5799C526.41 95.7964 510.709 115.004 484.82 115.004ZM484.82 99.4709C499.853 99.4709 508.204 86.9441 508.204 72.5799C508.204 58.3827 499.853 45.8558 484.82 45.8558C469.955 45.8558 461.604 58.3827 461.604 72.5799C461.604 86.9441 469.955 99.4709 484.82 99.4709ZM561.693 113H544.155V32.3268H561.693V44.1856C567.705 36.5024 577.393 30.4895 587.916 30.4895V47.8601C586.412 47.5261 584.575 47.3591 582.404 47.3591C575.055 47.3591 565.2 52.3698 561.693 58.0487V113ZM639.306 115.004C615.087 115.004 597.048 98.1347 597.048 72.5799C597.048 49.1963 614.085 30.3225 637.97 30.3225C662.188 30.3225 677.722 48.8623 677.722 74.2501V78.4258H615.421C616.757 90.6186 625.944 100.64 641.143 100.64C648.993 100.64 658.347 97.4666 664.026 91.7878L672.043 103.313C664.026 110.996 652.167 115.004 639.306 115.004ZM660.685 66.0659C660.351 56.5454 653.837 44.6866 637.97 44.6866C622.937 44.6866 616.089 56.2114 615.254 66.0659H660.685ZM715.93 106.653C715.93 118.178 709.416 128.7 700.23 135.214L692.379 128.7C697.724 125.527 703.236 118.679 704.405 113C703.904 113.167 702.568 113.501 701.566 113.501C695.887 113.501 691.544 109.158 691.544 102.978C691.544 96.6315 696.722 91.4537 702.902 91.4537C709.75 91.4537 715.93 96.9656 715.93 106.653ZM439.226 316H419.685V233.322L385.444 316H377.093L343.02 233.322V316H323.478V204.594H351.037L381.269 277.918L411.667 204.594H439.226V316ZM498.848 318.004C473.293 318.004 457.426 298.796 457.426 275.58C457.426 252.53 473.293 233.322 498.848 233.322C524.737 233.322 540.437 252.53 540.437 275.58C540.437 298.796 524.737 318.004 498.848 318.004ZM498.848 302.471C513.88 302.471 522.232 289.944 522.232 275.58C522.232 261.383 513.88 248.856 498.848 248.856C483.983 248.856 475.631 261.383 475.631 275.58C475.631 289.944 483.983 302.471 498.848 302.471ZM575.72 316H558.182V235.327H575.72V247.186C581.733 239.502 591.42 233.489 601.943 233.489V250.86C600.44 250.526 598.603 250.359 596.431 250.359C589.082 250.359 579.228 255.37 575.72 261.049V316ZM653.333 318.004C629.115 318.004 611.076 301.135 611.076 275.58C611.076 252.196 628.113 233.322 651.997 233.322C676.216 233.322 691.749 251.862 691.749 277.25V281.426H629.449C630.785 293.619 639.971 303.64 655.171 303.64C663.021 303.64 672.374 300.467 678.053 294.788L686.07 306.313C678.053 313.996 666.194 318.004 653.333 318.004ZM674.713 269.066C674.379 259.545 667.865 247.687 651.997 247.687C636.965 247.687 630.117 259.211 629.282 269.066H674.713Z"/>
<path d="M45.9406 318.004C25.3965 318.004 10.5312 310.822 0.676709 300.3L11.5334 285.267C19.2165 293.452 31.2423 300.634 46.7757 300.634C62.8101 300.634 69.1571 292.783 69.1571 285.434C69.1571 262.051 4.18424 276.582 4.18424 235.494C4.18424 217.121 20.3857 202.924 44.7714 202.924C62.142 202.924 76.1722 208.436 86.5277 218.457L75.337 232.988C66.6517 224.303 54.7929 220.294 43.1011 220.294C31.5764 220.294 24.2273 225.806 24.2273 234.158C24.2273 254.869 89.0331 242.008 89.0331 283.597C89.0331 302.137 76.0051 318.004 45.9406 318.004ZM143.776 318.004C119.557 318.004 101.518 301.135 101.518 275.58C101.518 252.196 118.555 233.322 142.439 233.322C166.658 233.322 182.191 251.862 182.191 277.25V281.426H119.891C121.227 293.619 130.414 303.64 145.613 303.64C153.463 303.64 162.817 300.467 168.495 294.788L176.513 306.313C168.495 313.996 156.637 318.004 143.776 318.004ZM165.155 269.066C164.821 259.545 158.307 247.687 142.439 247.687C127.407 247.687 120.559 259.211 119.724 269.066H165.155ZM217.04 316H199.502V204.594H217.04V316ZM257.328 316H239.79V204.594H257.328V316Z"/>
</mask>
<path d="M76.5062 113H7.8588V1.59411H27.4008V95.7964H76.5062V113ZM102.329 22.4723C96.4827 22.4723 91.4719 17.6285 91.4719 11.6156C91.4719 5.60272 96.4827 0.75898 102.329 0.75898C108.341 0.75898 113.185 5.60272 113.185 11.6156C113.185 17.6285 108.341 22.4723 102.329 22.4723ZM111.181 113H93.6433V32.3268H111.181V113ZM161.491 115.004C147.795 115.004 135.268 110.662 126.917 102.477L134.934 89.7835C140.613 95.6294 151.803 101.141 162.326 101.141C172.848 101.141 178.193 96.6315 178.193 90.2846C178.193 74.4172 129.422 85.7749 129.422 54.8752C129.422 41.6802 140.78 30.3225 161.157 30.3225C174.853 30.3225 185.208 35.1662 192.557 41.6802L185.208 54.0401C180.365 48.5282 171.345 44.3526 161.324 44.3526C152.137 44.3526 146.291 48.5282 146.291 54.2071C146.291 68.5713 195.063 57.8816 195.063 89.9505C195.063 104.148 183.204 115.004 161.491 115.004ZM236.933 115.004C223.404 115.004 216.222 107.655 216.222 94.2932V47.6931H202.86V32.3268H216.222V10.2794H233.759V32.3268H250.128V47.6931H233.759V89.9505C233.759 95.4623 236.432 99.4709 241.442 99.4709C244.783 99.4709 247.956 98.1347 249.293 96.6315L253.468 109.827C250.295 112.833 245.117 115.004 236.933 115.004ZM425.199 113H405.657V30.3225L371.417 113H363.066L328.992 30.3225V113H309.45V1.59411H337.01L367.241 74.9182L397.64 1.59411H425.199V113ZM484.82 115.004C459.266 115.004 443.398 95.7964 443.398 72.5799C443.398 49.5304 459.266 30.3225 484.82 30.3225C510.709 30.3225 526.41 49.5304 526.41 72.5799C526.41 95.7964 510.709 115.004 484.82 115.004ZM484.82 99.4709C499.853 99.4709 508.204 86.9441 508.204 72.5799C508.204 58.3827 499.853 45.8558 484.82 45.8558C469.955 45.8558 461.604 58.3827 461.604 72.5799C461.604 86.9441 469.955 99.4709 484.82 99.4709ZM561.693 113H544.155V32.3268H561.693V44.1856C567.705 36.5024 577.393 30.4895 587.916 30.4895V47.8601C586.412 47.5261 584.575 47.3591 582.404 47.3591C575.055 47.3591 565.2 52.3698 561.693 58.0487V113ZM639.306 115.004C615.087 115.004 597.048 98.1347 597.048 72.5799C597.048 49.1963 614.085 30.3225 637.97 30.3225C662.188 30.3225 677.722 48.8623 677.722 74.2501V78.4258H615.421C616.757 90.6186 625.944 100.64 641.143 100.64C648.993 100.64 658.347 97.4666 664.026 91.7878L672.043 103.313C664.026 110.996 652.167 115.004 639.306 115.004ZM660.685 66.0659C660.351 56.5454 653.837 44.6866 637.97 44.6866C622.937 44.6866 616.089 56.2114 615.254 66.0659H660.685ZM715.93 106.653C715.93 118.178 709.416 128.7 700.23 135.214L692.379 128.7C697.724 125.527 703.236 118.679 704.405 113C703.904 113.167 702.568 113.501 701.566 113.501C695.887 113.501 691.544 109.158 691.544 102.978C691.544 96.6315 696.722 91.4537 702.902 91.4537C709.75 91.4537 715.93 96.9656 715.93 106.653ZM439.226 316H419.685V233.322L385.444 316H377.093L343.02 233.322V316H323.478V204.594H351.037L381.269 277.918L411.667 204.594H439.226V316ZM498.848 318.004C473.293 318.004 457.426 298.796 457.426 275.58C457.426 252.53 473.293 233.322 498.848 233.322C524.737 233.322 540.437 252.53 540.437 275.58C540.437 298.796 524.737 318.004 498.848 318.004ZM498.848 302.471C513.88 302.471 522.232 289.944 522.232 275.58C522.232 261.383 513.88 248.856 498.848 248.856C483.983 248.856 475.631 261.383 475.631 275.58C475.631 289.944 483.983 302.471 498.848 302.471ZM575.72 316H558.182V235.327H575.72V247.186C581.733 239.502 591.42 233.489 601.943 233.489V250.86C600.44 250.526 598.603 250.359 596.431 250.359C589.082 250.359 579.228 255.37 575.72 261.049V316ZM653.333 318.004C629.115 318.004 611.076 301.135 611.076 275.58C611.076 252.196 628.113 233.322 651.997 233.322C676.216 233.322 691.749 251.862 691.749 277.25V281.426H629.449C630.785 293.619 639.971 303.64 655.171 303.64C663.021 303.64 672.374 300.467 678.053 294.788L686.07 306.313C678.053 313.996 666.194 318.004 653.333 318.004ZM674.713 269.066C674.379 259.545 667.865 247.687 651.997 247.687C636.965 247.687 630.117 259.211 629.282 269.066H674.713Z" fill="white"/>
<path d="M45.9406 318.004C25.3965 318.004 10.5312 310.822 0.676709 300.3L11.5334 285.267C19.2165 293.452 31.2423 300.634 46.7757 300.634C62.8101 300.634 69.1571 292.783 69.1571 285.434C69.1571 262.051 4.18424 276.582 4.18424 235.494C4.18424 217.121 20.3857 202.924 44.7714 202.924C62.142 202.924 76.1722 208.436 86.5277 218.457L75.337 232.988C66.6517 224.303 54.7929 220.294 43.1011 220.294C31.5764 220.294 24.2273 225.806 24.2273 234.158C24.2273 254.869 89.0331 242.008 89.0331 283.597C89.0331 302.137 76.0051 318.004 45.9406 318.004ZM143.776 318.004C119.557 318.004 101.518 301.135 101.518 275.58C101.518 252.196 118.555 233.322 142.439 233.322C166.658 233.322 182.191 251.862 182.191 277.25V281.426H119.891C121.227 293.619 130.414 303.64 145.613 303.64C153.463 303.64 162.817 300.467 168.495 294.788L176.513 306.313C168.495 313.996 156.637 318.004 143.776 318.004ZM165.155 269.066C164.821 259.545 158.307 247.687 142.439 247.687C127.407 247.687 120.559 259.211 119.724 269.066H165.155ZM217.04 316H199.502V204.594H217.04V316ZM257.328 316H239.79V204.594H257.328V316Z" fill="#FB2D2D"/>
<path d="M76.5062 113V115.827H79.3328V113H76.5062ZM7.8588 113H5.03222V115.827H7.8588V113ZM7.8588 1.59411V-1.23248H5.03222V1.59411H7.8588ZM27.4008 1.59411H30.2273V-1.23248H27.4008V1.59411ZM27.4008 95.7964H24.5742V98.623H27.4008V95.7964ZM76.5062 95.7964H79.3328V92.9698H76.5062V95.7964ZM76.5062 110.173H7.8588V115.827H76.5062V110.173ZM10.6854 113V1.59411H5.03222V113H10.6854ZM7.8588 4.42069H27.4008V-1.23248H7.8588V4.42069ZM24.5742 1.59411V95.7964H30.2273V1.59411H24.5742ZM27.4008 98.623H76.5062V92.9698H27.4008V98.623ZM73.6796 95.7964V113H79.3328V95.7964H73.6796ZM111.181 113V115.827H114.008V113H111.181ZM93.6433 113H90.8167V115.827H93.6433V113ZM93.6433 32.3268V29.5002H90.8167V32.3268H93.6433ZM111.181 32.3268H114.008V29.5002H111.181V32.3268ZM102.329 19.6457C98.0155 19.6457 94.2985 16.0393 94.2985 11.6156H88.6453C88.6453 19.2177 94.9499 25.2989 102.329 25.2989V19.6457ZM94.2985 11.6156C94.2985 7.19192 98.0155 3.58556 102.329 3.58556V-2.0676C94.9499 -2.0676 88.6453 4.01352 88.6453 11.6156H94.2985ZM102.329 3.58556C106.78 3.58556 110.359 7.1638 110.359 11.6156H116.012C116.012 4.04164 109.903 -2.0676 102.329 -2.0676V3.58556ZM110.359 11.6156C110.359 16.0675 106.78 19.6457 102.329 19.6457V25.2989C109.903 25.2989 116.012 19.1896 116.012 11.6156H110.359ZM111.181 110.173H93.6433V115.827H111.181V110.173ZM96.4698 113V32.3268H90.8167V113H96.4698ZM93.6433 35.1534H111.181V29.5002H93.6433V35.1534ZM108.354 32.3268V113H114.008V32.3268H108.354ZM126.917 102.477L124.527 100.968L123.308 102.898L124.938 104.496L126.917 102.477ZM134.934 89.7835L136.961 87.814L134.46 85.2396L132.544 88.2741L134.934 89.7835ZM192.557 41.6802L194.987 43.1248L196.182 41.1155L194.432 39.5649L192.557 41.6802ZM185.208 54.0401L183.085 55.9059L185.651 58.8259L187.638 55.4847L185.208 54.0401ZM161.491 112.178C148.347 112.178 136.598 108.007 128.895 100.459L124.938 104.496C133.938 113.316 147.242 117.831 161.491 117.831V112.178ZM129.306 103.987L137.324 91.2929L132.544 88.2741L124.527 100.968L129.306 103.987ZM132.906 91.753C139.082 98.1104 150.99 103.968 162.326 103.968V98.3146C152.617 98.3146 142.143 93.1484 136.961 87.814L132.906 91.753ZM162.326 103.968C167.943 103.968 172.566 102.771 175.864 100.382C179.261 97.9209 181.02 94.3492 181.02 90.2846H175.367C175.367 92.5669 174.453 94.4235 172.547 95.8039C170.542 97.2568 167.232 98.3146 162.326 98.3146V103.968ZM181.02 90.2846C181.02 87.4601 179.89 85.1807 178.046 83.4266C176.297 81.7632 173.965 80.6219 171.532 79.7442C166.784 78.0316 160.252 76.8949 154.484 75.4726C148.438 73.9817 142.842 72.1176 138.769 68.9746C134.873 65.9677 132.248 61.7019 132.248 54.8752H126.595C126.595 63.4983 130.067 69.4002 135.316 73.4501C140.387 77.3639 146.985 79.4458 153.131 80.9614C159.556 82.5455 165.216 83.4757 169.614 85.0619C171.753 85.8336 173.231 86.6496 174.15 87.5229C174.973 88.3055 175.367 89.1421 175.367 90.2846H181.02ZM132.248 54.8752C132.248 49.1344 134.701 43.7854 139.457 39.8221C144.235 35.8412 151.484 33.149 161.157 33.149V27.4959C150.452 27.4959 141.834 30.4826 135.838 35.4793C129.821 40.4936 126.595 47.421 126.595 54.8752H132.248ZM161.157 33.149C174.132 33.149 183.828 37.7195 190.683 43.7955L194.432 39.5649C186.589 32.6129 175.574 27.4959 161.157 27.4959V33.149ZM190.128 40.2356L182.779 52.5955L187.638 55.4847L194.987 43.1248L190.128 40.2356ZM187.332 52.1742C181.882 45.9727 172.047 41.526 161.324 41.526V47.1792C170.644 47.1792 178.847 51.0837 183.085 55.9059L187.332 52.1742ZM161.324 41.526C156.339 41.526 151.986 42.6541 148.786 44.8042C145.53 46.9922 143.465 50.2743 143.465 54.2071H149.118C149.118 52.4611 149.976 50.8159 151.939 49.4963C153.959 48.1389 157.122 47.1792 161.324 47.1792V41.526ZM143.465 54.2071C143.465 56.9498 144.686 59.0998 146.546 60.6962C148.297 62.2001 150.617 63.2262 153.021 64.0246C155.458 64.8341 158.251 65.4936 161.106 66.1318C164.006 66.7799 166.983 67.409 169.974 68.1773C175.99 69.7226 181.582 71.7215 185.655 75.0463C189.572 78.2433 192.236 82.7852 192.236 89.9505H197.889C197.889 81.0814 194.457 74.9337 189.23 70.6667C184.158 66.5276 177.557 64.2882 171.38 62.7018C168.275 61.9043 165.155 61.2441 162.34 60.6147C159.479 59.9754 156.939 59.3692 154.803 58.6598C152.634 57.9393 151.144 57.1934 150.228 56.4072C149.421 55.7135 149.118 55.0554 149.118 54.2071H143.465ZM192.236 89.9505C192.236 96.1943 189.66 101.637 184.666 105.584C179.619 109.574 171.903 112.178 161.491 112.178V117.831C172.792 117.831 181.862 115.007 188.172 110.019C194.537 104.988 197.889 97.9039 197.889 89.9505H192.236ZM216.222 47.6931H219.048V44.8665H216.222V47.6931ZM202.86 47.6931H200.033V50.5197H202.86V47.6931ZM202.86 32.3268V29.5002H200.033V32.3268H202.86ZM216.222 32.3268V35.1534H219.048V32.3268H216.222ZM216.222 10.2794V7.45285H213.395V10.2794H216.222ZM233.759 10.2794H236.586V7.45285H233.759V10.2794ZM233.759 32.3268H230.933V35.1534H233.759V32.3268ZM250.128 32.3268H252.954V29.5002H250.128V32.3268ZM250.128 47.6931V50.5197H252.954V47.6931H250.128ZM233.759 47.6931V44.8665H230.933V47.6931H233.759ZM249.293 96.6315L251.987 95.7787L250.486 91.0343L247.18 94.7536L249.293 96.6315ZM253.468 109.827L255.412 111.878L256.697 110.661L256.163 108.974L253.468 109.827ZM236.933 112.178C230.664 112.178 226.307 110.482 223.508 107.667C220.707 104.848 219.048 100.487 219.048 94.2932H213.395C213.395 101.461 215.328 107.456 219.499 111.652C223.674 115.852 229.673 117.831 236.933 117.831V112.178ZM219.048 94.2932V47.6931H213.395V94.2932H219.048ZM216.222 44.8665H202.86V50.5197H216.222V44.8665ZM205.686 47.6931V32.3268H200.033V47.6931H205.686ZM202.86 35.1534H216.222V29.5002H202.86V35.1534ZM219.048 32.3268V10.2794H213.395V32.3268H219.048ZM216.222 13.106H233.759V7.45285H216.222V13.106ZM230.933 10.2794V32.3268H236.586V10.2794H230.933ZM233.759 35.1534H250.128V29.5002H233.759V35.1534ZM247.301 32.3268V47.6931H252.954V32.3268H247.301ZM250.128 44.8665H233.759V50.5197H250.128V44.8665ZM230.933 47.6931V89.9505H236.586V47.6931H230.933ZM230.933 89.9505C230.933 93.1214 231.697 96.1696 233.477 98.4957C235.328 100.913 238.092 102.298 241.442 102.298V96.6444C239.782 96.6444 238.705 96.0246 237.966 95.0596C237.158 94.0035 236.586 92.2914 236.586 89.9505H230.933ZM241.442 102.298C243.476 102.298 245.443 101.894 247.12 101.258C248.753 100.64 250.331 99.7175 251.405 98.5094L247.18 94.7536C246.918 95.0488 246.241 95.546 245.118 95.9716C244.04 96.38 242.75 96.6444 241.442 96.6444V102.298ZM246.598 97.4843L250.773 110.679L256.163 108.974L251.987 95.7787L246.598 97.4843ZM251.524 107.775C249.021 110.146 244.622 112.178 236.933 112.178V117.831C245.612 117.831 251.568 115.52 255.412 111.878L251.524 107.775ZM425.199 113V115.827H428.026V113H425.199ZM405.657 113H402.83V115.827H405.657V113ZM405.657 30.3225H408.484L403.046 29.2409L405.657 30.3225ZM371.417 113V115.827H373.306L374.028 114.082L371.417 113ZM363.066 113L360.452 114.077L361.173 115.827H363.066V113ZM328.992 30.3225L331.606 29.2454L326.166 30.3225H328.992ZM328.992 113V115.827H331.819V113H328.992ZM309.45 113H306.624V115.827H309.45V113ZM309.45 1.59411V-1.23248H306.624V1.59411H309.45ZM337.01 1.59411L339.623 0.516688L338.902 -1.23248H337.01V1.59411ZM367.241 74.9182L364.628 75.9956L367.234 82.3162L369.852 76.0007L367.241 74.9182ZM397.64 1.59411V-1.23248H395.752L395.029 0.511606L397.64 1.59411ZM425.199 1.59411H428.026V-1.23248H425.199V1.59411ZM425.199 110.173H405.657V115.827H425.199V110.173ZM408.484 113V30.3225H402.83V113H408.484ZM403.046 29.2409L368.805 111.918L374.028 114.082L408.268 31.404L403.046 29.2409ZM371.417 110.173H363.066V115.827H371.417V110.173ZM365.679 111.923L331.606 29.2454L326.379 31.3995L360.452 114.077L365.679 111.923ZM326.166 30.3225V113H331.819V30.3225H326.166ZM328.992 110.173H309.45V115.827H328.992V110.173ZM312.277 113V1.59411H306.624V113H312.277ZM309.45 4.42069H337.01V-1.23248H309.45V4.42069ZM334.396 2.67152L364.628 75.9956L369.854 73.8408L339.623 0.516688L334.396 2.67152ZM369.852 76.0007L400.251 2.67661L395.029 0.511606L364.63 73.8357L369.852 76.0007ZM397.64 4.42069H425.199V-1.23248H397.64V4.42069ZM422.372 1.59411V113H428.026V1.59411H422.372ZM484.82 112.178C461.018 112.178 446.225 94.4334 446.225 72.5799H440.572C440.572 97.1594 457.514 117.831 484.82 117.831V112.178ZM446.225 72.5799C446.225 50.9009 461.011 33.149 484.82 33.149V27.4959C457.52 27.4959 440.572 48.1599 440.572 72.5799H446.225ZM484.82 33.149C497.024 33.149 506.658 37.6561 513.256 44.7348C519.878 51.8402 523.583 61.6922 523.583 72.5799H529.236C529.236 60.418 525.091 49.1413 517.391 40.8804C509.667 32.5928 498.506 27.4959 484.82 27.4959V33.149ZM523.583 72.5799C523.583 83.5559 519.875 93.4497 513.253 100.574C506.656 107.671 497.024 112.178 484.82 112.178V117.831C498.506 117.831 509.668 112.734 517.394 104.423C525.094 96.1388 529.236 84.8204 529.236 72.5799H523.583ZM484.82 102.298C493.206 102.298 499.857 98.7672 504.351 93.1845C508.795 87.6643 511.031 80.2798 511.031 72.5799H505.377C505.377 79.2441 503.437 85.3051 499.948 89.6394C496.508 93.9112 491.467 96.6444 484.82 96.6444V102.298ZM511.031 72.5799C511.031 64.9567 508.792 57.6136 504.347 52.1168C499.854 46.5587 493.205 43.0292 484.82 43.0292V48.6824C491.468 48.6824 496.511 51.4164 499.951 55.671C503.441 59.987 505.377 66.0059 505.377 72.5799H511.031ZM484.82 43.0292C476.509 43.0292 469.903 46.5673 465.435 52.1225C461.016 57.617 458.777 64.9568 458.777 72.5799H464.431C464.431 66.0058 466.367 59.9836 469.84 55.6654C473.264 51.4078 478.267 48.6824 484.82 48.6824V43.0292ZM458.777 72.5799C458.777 80.2797 461.012 87.661 465.431 93.1789C469.9 98.7586 476.508 102.298 484.82 102.298V96.6444C478.268 96.6444 473.267 93.9198 469.844 89.6451C466.371 85.3085 464.431 79.2442 464.431 72.5799H458.777ZM561.693 113V115.827H564.519V113H561.693ZM544.155 113H541.328V115.827H544.155V113ZM544.155 32.3268V29.5002H541.328V32.3268H544.155ZM561.693 32.3268H564.519V29.5002H561.693V32.3268ZM561.693 44.1856H558.866V52.3836L563.919 45.9276L561.693 44.1856ZM587.916 30.4895H590.742V27.6629H587.916V30.4895ZM587.916 47.8601L587.302 50.6194L590.742 51.3838V47.8601H587.916ZM561.693 58.0487L559.288 56.5633L558.866 57.2461V58.0487H561.693ZM561.693 110.173H544.155V115.827H561.693V110.173ZM546.981 113V32.3268H541.328V113H546.981ZM544.155 35.1534H561.693V29.5002H544.155V35.1534ZM558.866 32.3268V44.1856H564.519V32.3268H558.866ZM563.919 45.9276C569.527 38.7607 578.456 33.3161 587.916 33.3161V27.6629C576.33 27.6629 565.884 34.2441 559.467 42.4435L563.919 45.9276ZM585.089 30.4895V47.8601H590.742V30.4895H585.089ZM588.529 45.1009C586.761 44.708 584.704 44.5325 582.404 44.5325V50.1856C584.446 50.1856 586.064 50.3441 587.302 50.6194L588.529 45.1009ZM582.404 44.5325C578.159 44.5325 573.413 45.9556 569.316 48.06C565.245 50.1509 561.413 53.1225 559.288 56.5633L564.097 59.534C565.48 57.296 568.328 54.9227 571.899 53.0886C575.444 51.2678 579.299 50.1856 582.404 50.1856V44.5325ZM558.866 58.0487V113H564.519V58.0487H558.866ZM677.722 78.4258V81.2523H680.548V78.4258H677.722ZM615.421 78.4258V75.5992H612.268L612.611 78.7337L615.421 78.4258ZM664.026 91.7878L666.346 90.1736L664.416 87.3997L662.027 89.7891L664.026 91.7878ZM672.043 103.313L673.999 105.353L675.743 103.682L674.363 101.698L672.043 103.313ZM660.685 66.0659V68.8925H663.613L663.51 65.9668L660.685 66.0659ZM615.254 66.0659L612.438 65.8272L612.178 68.8925H615.254V66.0659ZM639.306 112.178C627.864 112.178 618.035 108.202 611.077 101.36C604.127 94.5257 599.875 84.6681 599.875 72.5799H594.222C594.222 86.0466 598.989 97.4011 607.113 105.391C615.23 113.372 626.529 117.831 639.306 117.831V112.178ZM599.875 72.5799C599.875 50.6135 615.786 33.149 637.97 33.149V27.4959C612.384 27.4959 594.222 47.7791 594.222 72.5799H599.875ZM637.97 33.149C649.309 33.149 658.462 37.4658 664.811 44.6392C671.189 51.8453 674.895 62.123 674.895 74.2501H680.548C680.548 60.9894 676.488 49.3033 669.044 40.8925C661.572 32.449 650.849 27.4959 637.97 27.4959V33.149ZM674.895 74.2501V78.4258H680.548V74.2501H674.895ZM677.722 75.5992H615.421V81.2523H677.722V75.5992ZM612.611 78.7337C614.097 92.2848 624.428 103.467 641.143 103.467V97.8135C627.46 97.8135 619.418 88.9524 618.231 78.1178L612.611 78.7337ZM641.143 103.467C649.591 103.467 659.717 100.094 666.024 93.7865L662.027 89.7891C656.976 94.8395 648.395 97.8135 641.143 97.8135V103.467ZM661.705 93.4019L669.722 104.927L674.363 101.698L666.346 90.1736L661.705 93.4019ZM670.087 101.272C662.717 108.335 651.624 112.178 639.306 112.178V117.831C652.709 117.831 665.334 113.656 673.999 105.353L670.087 101.272ZM663.51 65.9668C663.324 60.6541 661.422 54.6549 657.275 49.9395C653.063 45.15 646.683 41.8601 637.97 41.8601V47.5132C645.124 47.5132 649.934 50.1527 653.03 53.6727C656.19 57.2668 657.713 61.9572 657.86 66.165L663.51 65.9668ZM637.97 41.8601C629.652 41.8601 623.417 45.0819 619.185 49.7917C615.015 54.4337 612.899 60.3895 612.438 65.8272L618.071 66.3046C618.445 61.8877 620.17 57.154 623.391 53.5699C626.55 50.0538 631.255 47.5132 637.97 47.5132V41.8601ZM615.254 68.8925H660.685V63.2393H615.254V68.8925ZM700.23 135.214L698.425 137.39L700.095 138.775L701.865 137.52L700.23 135.214ZM692.379 128.7L690.936 126.27L687.49 128.316L690.574 130.876L692.379 128.7ZM704.405 113L707.174 113.57L708.162 108.768L703.511 110.318L704.405 113ZM713.103 106.653C713.103 117.099 707.177 126.823 698.595 132.909L701.865 137.52C711.655 130.578 718.757 119.257 718.757 106.653H713.103ZM702.035 133.039L694.184 126.525L690.574 130.876L698.425 137.39L702.035 133.039ZM693.823 131.131C696.856 129.33 699.825 126.565 702.189 123.525C704.539 120.504 706.472 116.979 707.174 113.57L701.637 112.43C701.169 114.7 699.762 117.438 697.727 120.054C695.707 122.652 693.248 124.897 690.936 126.27L693.823 131.131ZM703.511 110.318C703.392 110.358 703.049 110.456 702.619 110.541C702.178 110.63 701.8 110.674 701.566 110.674V116.328C702.996 116.328 704.657 115.896 705.299 115.682L703.511 110.318ZM701.566 110.674C697.539 110.674 694.371 107.689 694.371 102.978H688.718C688.718 110.627 694.235 116.328 701.566 116.328V110.674ZM694.371 102.978C694.371 98.1657 698.31 94.2803 702.902 94.2803V88.6272C695.134 88.6272 688.718 95.0973 688.718 102.978H694.371ZM702.902 94.2803C707.992 94.2803 713.103 98.3223 713.103 106.653H718.757C718.757 95.6088 711.508 88.6272 702.902 88.6272V94.2803ZM0.676709 300.3L-1.61474 298.645L-2.97799 300.532L-1.38641 302.232L0.676709 300.3ZM11.5334 285.267L13.5941 283.333L11.2485 280.834L9.2419 283.612L11.5334 285.267ZM86.5277 218.457L88.7672 220.182L90.3076 218.182L88.4934 216.426L86.5277 218.457ZM75.337 232.988L73.3383 234.987L75.6134 237.262L77.5765 234.713L75.337 232.988ZM45.9406 315.178C26.1085 315.178 12.014 308.27 2.73983 298.367L-1.38641 302.232C9.04839 313.374 24.6844 320.831 45.9406 320.831V315.178ZM2.96816 301.955L13.8248 286.922L9.2419 283.612L-1.61474 298.645L2.96816 301.955ZM9.47257 287.202C17.5828 295.841 30.3177 303.46 46.7757 303.46V297.807C32.167 297.807 20.8503 291.062 13.5941 283.333L9.47257 287.202ZM46.7757 303.46C55.2315 303.46 61.5162 301.39 65.7482 297.995C70.0129 294.573 71.9837 289.96 71.9837 285.434H66.3305C66.3305 288.258 65.1279 291.245 62.2104 293.585C59.2603 295.952 54.3543 297.807 46.7757 297.807V303.46ZM71.9837 285.434C71.9837 281.769 70.6786 278.761 68.4404 276.341C66.2746 273.999 63.3207 272.296 60.1032 270.94C53.7817 268.275 45.2482 266.511 37.4138 264.376C29.3243 262.172 21.69 259.522 16.0815 255.119C10.6466 250.853 7.01082 244.865 7.01082 235.494H1.35766C1.35766 246.667 5.84347 254.27 12.591 259.566C19.1649 264.726 27.7738 267.609 35.9275 269.83C44.3364 272.122 52.046 273.678 57.907 276.149C60.7806 277.36 62.9028 278.679 64.2902 280.179C65.6052 281.601 66.3305 283.254 66.3305 285.434H71.9837ZM7.01082 235.494C7.01082 219.171 21.4086 205.75 44.7714 205.75V200.097C19.3628 200.097 1.35766 215.071 1.35766 235.494H7.01082ZM44.7714 205.75C61.5079 205.75 74.8011 211.042 84.5621 220.488L88.4934 216.426C77.5433 205.829 62.7762 200.097 44.7714 200.097V205.75ZM84.2883 216.733L73.0976 231.264L77.5765 234.713L88.7672 220.182L84.2883 216.733ZM77.3357 230.99C68.0353 221.689 55.4131 217.468 43.1011 217.468V223.121C54.1727 223.121 65.2681 226.917 73.3383 234.987L77.3357 230.99ZM43.1011 217.468C36.9246 217.468 31.5605 218.941 27.6627 221.821C23.6891 224.757 21.4007 229.054 21.4007 234.158H27.0539C27.0539 230.91 28.44 228.275 31.0221 226.368C33.6801 224.404 37.753 223.121 43.1011 223.121V217.468ZM21.4007 234.158C21.4007 241.284 27.1504 245.009 33.331 247.407C36.5325 248.649 40.2127 249.68 44.02 250.672C47.8827 251.677 51.8467 252.635 55.8625 253.768C63.9036 256.038 71.5207 258.852 77.1183 263.428C82.5604 267.876 86.2065 274.078 86.2065 283.597H91.8597C91.8597 272.322 87.405 264.535 80.6961 259.051C74.1426 253.694 65.5583 250.631 57.3979 248.328C53.313 247.175 49.1762 246.173 45.4445 245.201C41.6573 244.215 38.2494 243.251 35.3754 242.136C29.4049 239.82 27.0539 237.387 27.0539 234.158H21.4007ZM86.2065 283.597C86.2065 292.185 83.2068 299.976 76.875 305.648C70.5187 311.342 60.4916 315.178 45.9406 315.178V320.831C61.4541 320.831 72.9732 316.733 80.6471 309.858C88.3454 302.962 91.8597 293.549 91.8597 283.597H86.2065ZM182.191 281.426V284.252H185.018V281.426H182.191ZM119.891 281.426V278.599H116.738L117.081 281.734L119.891 281.426ZM168.495 294.788L170.816 293.174L168.886 290.4L166.497 292.789L168.495 294.788ZM176.513 306.313L178.468 308.353L180.213 306.682L178.833 304.698L176.513 306.313ZM165.155 269.066V271.892H168.082L167.98 268.967L165.155 269.066ZM119.724 269.066L116.908 268.827L116.648 271.892H119.724V269.066ZM143.776 315.178C132.334 315.178 122.505 311.202 115.547 304.36C108.597 297.526 104.345 287.668 104.345 275.58H98.6917C98.6917 289.047 103.459 300.401 111.583 308.391C119.699 316.372 130.999 320.831 143.776 320.831V315.178ZM104.345 275.58C104.345 253.614 120.256 236.149 142.439 236.149V230.496C116.854 230.496 98.6917 250.779 98.6917 275.58H104.345ZM142.439 236.149C153.779 236.149 162.932 240.466 169.281 247.639C175.658 254.845 179.365 265.123 179.365 277.25H185.018C185.018 263.989 180.958 252.303 173.514 243.893C166.041 235.449 155.319 230.496 142.439 230.496V236.149ZM179.365 277.25V281.426H185.018V277.25H179.365ZM182.191 278.599H119.891V284.252H182.191V278.599ZM117.081 281.734C118.566 295.285 128.897 306.467 145.613 306.467V300.814C131.93 300.814 123.888 291.952 122.701 281.118L117.081 281.734ZM145.613 306.467C154.061 306.467 164.187 303.094 170.494 296.786L166.497 292.789C161.446 297.84 152.865 300.814 145.613 300.814V306.467ZM166.175 296.402L174.192 307.927L178.833 304.698L170.816 293.174L166.175 296.402ZM174.557 304.272C167.187 311.335 156.094 315.178 143.776 315.178V320.831C157.179 320.831 169.804 316.656 178.468 308.353L174.557 304.272ZM167.98 268.967C167.793 263.654 165.891 257.655 161.745 252.939C157.533 248.15 151.153 244.86 142.439 244.86V250.513C149.594 250.513 154.404 253.153 157.5 256.673C160.66 260.267 162.182 264.957 162.33 269.165L167.98 268.967ZM142.439 244.86C134.121 244.86 127.887 248.082 123.655 252.792C119.485 257.434 117.368 263.39 116.908 268.827L122.54 269.305C122.915 264.888 124.64 260.154 127.86 256.57C131.02 253.054 135.725 250.513 142.439 250.513V244.86ZM119.724 271.892H165.155V266.239H119.724V271.892ZM217.04 316V318.827H219.866V316H217.04ZM199.502 316H196.675V318.827H199.502V316ZM199.502 204.594V201.768H196.675V204.594H199.502ZM217.04 204.594H219.866V201.768H217.04V204.594ZM217.04 313.173H199.502V318.827H217.04V313.173ZM202.329 316V204.594H196.675V316H202.329ZM199.502 207.421H217.04V201.768H199.502V207.421ZM214.213 204.594V316H219.866V204.594H214.213ZM257.328 316V318.827H260.155V316H257.328ZM239.79 316H236.964V318.827H239.79V316ZM239.79 204.594V201.768H236.964V204.594H239.79ZM257.328 204.594H260.155V201.768H257.328V204.594ZM257.328 313.173H239.79V318.827H257.328V313.173ZM242.617 316V204.594H236.964V316H242.617ZM239.79 207.421H257.328V201.768H239.79V207.421ZM254.501 204.594V316H260.155V204.594H254.501ZM439.226 316V318.827H442.053V316H439.226ZM419.685 316H416.858V318.827H419.685V316ZM419.685 233.322H422.511L417.073 232.241L419.685 233.322ZM385.444 316V318.827H387.333L388.056 317.082L385.444 316ZM377.093 316L374.48 317.077L375.201 318.827H377.093V316ZM343.02 233.322L345.633 232.245L340.193 233.322H343.02ZM343.02 316V318.827H345.846V316H343.02ZM323.478 316H320.651V318.827H323.478V316ZM323.478 204.594V201.768H320.651V204.594H323.478ZM351.037 204.594L353.65 203.517L352.929 201.768H351.037V204.594ZM381.269 277.918L378.656 278.996L381.262 285.316L383.88 279.001L381.269 277.918ZM411.667 204.594V201.768H409.779L409.056 203.512L411.667 204.594ZM439.226 204.594H442.053V201.768H439.226V204.594ZM439.226 313.173H419.685V318.827H439.226V313.173ZM422.511 316V233.322H416.858V316H422.511ZM417.073 232.241L382.833 314.918L388.056 317.082L422.296 234.404L417.073 232.241ZM385.444 313.173H377.093V318.827H385.444V313.173ZM379.706 314.923L345.633 232.245L340.407 234.399L374.48 317.077L379.706 314.923ZM340.193 233.322V316H345.846V233.322H340.193ZM343.02 313.173H323.478V318.827H343.02V313.173ZM326.305 316V204.594H320.651V316H326.305ZM323.478 207.421H351.037V201.768H323.478V207.421ZM348.424 205.672L378.656 278.996L383.882 276.841L353.65 203.517L348.424 205.672ZM383.88 279.001L414.278 205.677L409.056 203.512L378.658 276.836L383.88 279.001ZM411.667 207.421H439.226V201.768H411.667V207.421ZM436.4 204.594V316H442.053V204.594H436.4ZM498.848 315.178C475.045 315.178 460.252 297.433 460.252 275.58H454.599C454.599 300.159 471.541 320.831 498.848 320.831V315.178ZM460.252 275.58C460.252 253.901 475.038 236.149 498.848 236.149V230.496C471.548 230.496 454.599 251.16 454.599 275.58H460.252ZM498.848 236.149C511.051 236.149 520.685 240.656 527.283 247.735C533.906 254.84 537.611 264.692 537.611 275.58H543.264C543.264 263.418 539.118 252.141 531.419 243.88C523.694 235.593 512.533 230.496 498.848 230.496V236.149ZM537.611 275.58C537.611 286.556 533.903 296.45 527.281 303.574C520.684 310.671 511.051 315.178 498.848 315.178V320.831C512.534 320.831 523.696 315.734 531.421 307.423C539.122 299.139 543.264 287.82 543.264 275.58H537.611ZM498.848 305.298C507.234 305.298 513.884 301.767 518.379 296.185C522.823 290.664 525.058 283.28 525.058 275.58H519.405C519.405 282.244 517.465 288.305 513.975 292.639C510.536 296.911 505.494 299.644 498.848 299.644V305.298ZM525.058 275.58C525.058 267.957 522.819 260.614 518.375 255.117C513.881 249.559 507.233 246.029 498.848 246.029V251.682C505.495 251.682 510.539 254.416 513.979 258.671C517.468 262.987 519.405 269.006 519.405 275.58H525.058ZM498.848 246.029C490.536 246.029 483.93 249.567 479.463 255.122C475.044 260.617 472.805 267.957 472.805 275.58H478.458C478.458 269.006 480.395 262.984 483.868 258.665C487.292 254.408 492.295 251.682 498.848 251.682V246.029ZM472.805 275.58C472.805 283.28 475.04 290.661 479.459 296.179C483.927 301.759 490.535 305.298 498.848 305.298V299.644C492.295 299.644 487.295 296.92 483.872 292.645C480.399 288.308 478.458 282.244 478.458 275.58H472.805ZM575.72 316V318.827H578.547V316H575.72ZM558.182 316H555.356V318.827H558.182V316ZM558.182 235.327V232.5H555.356V235.327H558.182ZM575.72 235.327H578.547V232.5H575.72V235.327ZM575.72 247.186H572.894V255.384L577.946 248.928L575.72 247.186ZM601.943 233.489H604.77V230.663H601.943V233.489ZM601.943 250.86L601.33 253.619L604.77 254.384V250.86H601.943ZM575.72 261.049L573.315 259.563L572.894 260.246V261.049H575.72ZM575.72 313.173H558.182V318.827H575.72V313.173ZM561.009 316V235.327H555.356V316H561.009ZM558.182 238.153H575.72V232.5H558.182V238.153ZM572.894 235.327V247.186H578.547V235.327H572.894ZM577.946 248.928C583.555 241.761 592.483 236.316 601.943 236.316V230.663C590.358 230.663 579.911 237.244 573.494 245.444L577.946 248.928ZM599.116 233.489V250.86H604.77V233.489H599.116ZM602.556 248.101C600.788 247.708 598.732 247.532 596.431 247.532V253.186C598.473 253.186 600.091 253.344 601.33 253.619L602.556 248.101ZM596.431 247.532C592.187 247.532 587.44 248.956 583.344 251.06C579.273 253.151 575.44 256.122 573.315 259.563L578.125 262.534C579.507 260.296 582.356 257.923 585.927 256.089C589.471 254.268 593.327 253.186 596.431 253.186V247.532ZM572.894 261.049V316H578.547V261.049H572.894ZM691.749 281.426V284.252H694.576V281.426H691.749ZM629.449 281.426V278.599H626.295L626.639 281.734L629.449 281.426ZM678.053 294.788L680.373 293.174L678.444 290.4L676.054 292.789L678.053 294.788ZM686.07 306.313L688.026 308.353L689.77 306.682L688.391 304.698L686.07 306.313ZM674.713 269.066V271.892H677.64L677.537 268.967L674.713 269.066ZM629.282 269.066L626.465 268.827L626.205 271.892H629.282V269.066ZM653.333 315.178C641.891 315.178 632.062 311.202 625.105 304.36C618.155 297.526 613.903 287.668 613.903 275.58H608.249C608.249 289.047 613.016 300.401 621.141 308.391C629.257 316.372 640.557 320.831 653.333 320.831V315.178ZM613.903 275.58C613.903 253.614 629.814 236.149 651.997 236.149V230.496C626.411 230.496 608.249 250.779 608.249 275.58H613.903ZM651.997 236.149C663.336 236.149 672.49 240.466 678.839 247.639C685.216 254.845 688.923 265.123 688.923 277.25H694.576C694.576 263.989 690.516 252.303 683.072 243.893C675.599 235.449 664.877 230.496 651.997 230.496V236.149ZM688.923 277.25V281.426H694.576V277.25H688.923ZM691.749 278.599H629.449V284.252H691.749V278.599ZM626.639 281.734C628.124 295.285 638.455 306.467 655.171 306.467V300.814C641.488 300.814 633.446 291.952 632.259 281.118L626.639 281.734ZM655.171 306.467C663.619 306.467 673.745 303.094 680.052 296.786L676.054 292.789C671.004 297.84 662.423 300.814 655.171 300.814V306.467ZM675.733 296.402L683.75 307.927L688.391 304.698L680.373 293.174L675.733 296.402ZM684.115 304.272C676.744 311.335 665.652 315.178 653.333 315.178V320.831C666.737 320.831 679.362 316.656 688.026 308.353L684.115 304.272ZM677.537 268.967C677.351 263.654 675.449 257.655 671.302 252.939C667.091 248.15 660.71 244.86 651.997 244.86V250.513C659.151 250.513 663.962 253.153 667.057 256.673C670.218 260.267 671.74 264.957 671.888 269.165L677.537 268.967ZM651.997 244.86C643.679 244.86 637.445 248.082 633.213 252.792C629.042 257.434 626.926 263.39 626.465 268.827L632.098 269.305C632.473 264.888 634.198 260.154 637.418 256.57C640.577 253.054 645.283 250.513 651.997 250.513V244.86ZM629.282 271.892H674.713V266.239H629.282V271.892Z" fill="black" mask="url(#path-1-outside-1_1393_20)"/>
</svg>
