<svg width="687" height="551" viewBox="0 0 687 551" fill="none" xmlns="http://www.w3.org/2000/svg">
<mask id="path-1-outside-1_1370_20" maskUnits="userSpaceOnUse" x="-3" y="-3" width="693" height="557" fill="black">
<rect fill="white" x="-3" y="-3" width="693" height="557"/>
<path d="M53.9578 112H34.4158V17.7977H0.676709V0.594106H87.6969V17.7977H53.9578V112ZM175.911 112H158.373V61.2243C158.373 48.6974 151.859 44.8558 142.005 44.8558C133.153 44.8558 125.469 50.2006 121.294 55.7125V112H103.756V0.594106H121.294V42.3504C126.639 36.0035 137.161 29.3225 149.855 29.3225C167.226 29.3225 175.911 38.3418 175.911 54.8773V112ZM235.933 114.004C211.714 114.004 193.676 97.1347 193.676 71.5799C193.676 48.1963 210.712 29.3225 234.597 29.3225C258.816 29.3225 274.349 47.8623 274.349 73.2501V77.4258H212.049C213.385 89.6186 222.571 99.6401 237.77 99.6401C245.621 99.6401 254.974 96.4666 260.653 90.7878L268.67 102.313C260.653 109.996 248.794 114.004 235.933 114.004ZM257.312 65.0659C256.978 55.5454 250.464 43.6866 234.597 43.6866C219.565 43.6866 212.717 55.2114 211.882 65.0659H257.312ZM53.9578 315H34.4158V220.798H0.676709V203.594H87.6969V220.798H53.9578V315ZM175.911 315H158.373V264.224C158.373 251.697 151.859 247.856 142.005 247.856C133.153 247.856 125.469 253.201 121.294 258.712V315H103.756V203.594H121.294V245.35C126.639 239.003 137.161 232.322 149.855 232.322C167.226 232.322 175.911 241.342 175.911 257.877V315ZM216.224 315H198.687V234.327H216.224V246.186C222.237 238.502 231.925 232.489 242.447 232.489V249.86C240.944 249.526 239.107 249.359 236.935 249.359C229.586 249.359 219.732 254.37 216.224 260.049V315ZM265.276 224.472C259.43 224.472 254.419 219.629 254.419 213.616C254.419 207.603 259.43 202.759 265.276 202.759C271.289 202.759 276.133 207.603 276.133 213.616C276.133 219.629 271.289 224.472 265.276 224.472ZM274.128 315H256.591V234.327H274.128V315ZM318.592 315H301.055V249.693H287.693V234.327H301.055V229.817C301.055 212.279 311.243 201.924 326.61 201.924C333.792 201.924 340.974 203.761 345.985 208.939L339.137 219.796C336.798 217.624 333.792 216.288 329.783 216.288C322.935 216.288 318.592 220.798 318.592 229.817V234.327H334.961V249.693H318.592V315ZM372.478 317.004C358.949 317.004 351.767 309.655 351.767 296.293V249.693H338.405V234.327H351.767V212.279H369.304V234.327H385.673V249.693H369.304V291.951C369.304 297.462 371.977 301.471 376.987 301.471C380.328 301.471 383.501 300.135 384.838 298.632L389.013 311.827C385.84 314.833 380.662 317.004 372.478 317.004ZM572.738 317.004C562.55 317.004 553.363 312.495 546.849 303.809V345.733H529.312V234.327H546.849V245.35C552.862 237.333 562.216 232.322 572.738 232.322C593.617 232.322 608.482 248.023 608.482 274.58C608.482 301.137 593.617 317.004 572.738 317.004ZM567.561 301.471C581.424 301.471 590.276 290.28 590.276 274.58C590.276 259.047 581.424 247.856 567.561 247.856C559.376 247.856 550.691 252.7 546.849 258.712V290.614C550.691 296.46 559.376 301.471 567.561 301.471ZM653.433 317.004C639.736 317.004 627.21 312.662 618.858 304.477L626.875 291.783C632.554 297.629 643.745 303.141 654.268 303.141C664.79 303.141 670.135 298.632 670.135 292.285C670.135 276.417 621.364 287.775 621.364 256.875C621.364 243.68 632.721 232.322 653.098 232.322C666.795 232.322 677.15 237.166 684.499 243.68L677.15 256.04C672.306 250.528 663.287 246.353 653.265 246.353C644.079 246.353 638.233 250.528 638.233 256.207C638.233 270.571 687.005 259.882 687.005 291.951C687.005 306.148 675.146 317.004 653.433 317.004ZM123.607 518H104.065V435.322L69.8252 518H61.4739L27.4008 435.322V518H7.8588V406.594H35.418L65.6496 479.918L96.0482 406.594H123.607V518ZM213.627 518H196.09V509.315C190.077 516.163 180.723 520.004 170.034 520.004C156.839 520.004 141.974 511.152 141.974 493.28C141.974 474.74 156.839 467.057 170.034 467.057C180.89 467.057 190.244 470.565 196.09 477.413V465.387C196.09 456.034 188.407 450.355 177.216 450.355C168.197 450.355 160.346 453.695 153.331 460.543L146.149 448.35C155.503 439.498 167.194 435.322 180.055 435.322C197.927 435.322 213.627 442.839 213.627 464.552V518ZM176.882 507.978C184.565 507.978 192.081 505.139 196.09 499.627V487.434C192.081 481.923 184.565 479.083 176.882 479.083C167.027 479.083 159.678 484.762 159.678 493.614C159.678 502.3 167.027 507.978 176.882 507.978ZM269.102 550.737C255.406 550.737 245.217 547.731 235.363 538.711L243.547 526.017C250.061 533.533 258.412 536.373 269.102 536.373C280.627 536.373 292.987 531.028 292.987 514.492V504.805C286.807 512.822 277.62 518.167 267.098 518.167C246.554 518.167 231.354 503.302 231.354 476.745C231.354 450.689 246.387 435.322 267.098 435.322C277.286 435.322 286.473 439.999 292.987 448.517V437.327H310.524V513.824C310.524 542.887 288.978 550.737 269.102 550.737ZM272.276 502.634C280.46 502.634 289.145 497.79 292.987 491.777V461.712C289.145 455.7 280.46 450.856 272.276 450.856C258.412 450.856 249.56 461.211 249.56 476.745C249.56 492.278 258.412 502.634 272.276 502.634ZM341.938 427.472C336.092 427.472 331.081 422.629 331.081 416.616C331.081 410.603 336.092 405.759 341.938 405.759C347.951 405.759 352.795 410.603 352.795 416.616C352.795 422.629 347.951 427.472 341.938 427.472ZM350.79 518H333.253V437.327H350.79V518ZM410.287 520.004C385.734 520.004 368.53 502.133 368.53 477.58C368.53 453.194 385.734 435.322 410.287 435.322C425.987 435.322 435.508 442.003 441.186 449.687L429.662 460.376C425.152 454.029 418.972 450.856 411.122 450.856C396.424 450.856 386.736 461.879 386.736 477.58C386.736 493.28 396.424 504.471 411.122 504.471C418.972 504.471 425.152 501.13 429.662 494.951L441.186 505.64C435.508 513.323 425.987 520.004 410.287 520.004Z"/>
<path d="M454.042 317.004C420.637 317.004 397.087 292.619 397.087 259.381C397.087 226.143 420.637 201.757 454.042 201.757C487.447 201.757 510.998 226.143 510.998 259.381C510.998 292.619 487.447 317.004 454.042 317.004ZM454.042 299.634C476.424 299.634 490.955 282.263 490.955 259.381C490.955 236.331 476.424 219.127 454.042 219.127C431.494 219.127 417.13 236.331 417.13 259.381C417.13 282.263 431.494 299.634 454.042 299.634Z"/>
</mask>
<path d="M53.9578 112H34.4158V17.7977H0.676709V0.594106H87.6969V17.7977H53.9578V112ZM175.911 112H158.373V61.2243C158.373 48.6974 151.859 44.8558 142.005 44.8558C133.153 44.8558 125.469 50.2006 121.294 55.7125V112H103.756V0.594106H121.294V42.3504C126.639 36.0035 137.161 29.3225 149.855 29.3225C167.226 29.3225 175.911 38.3418 175.911 54.8773V112ZM235.933 114.004C211.714 114.004 193.676 97.1347 193.676 71.5799C193.676 48.1963 210.712 29.3225 234.597 29.3225C258.816 29.3225 274.349 47.8623 274.349 73.2501V77.4258H212.049C213.385 89.6186 222.571 99.6401 237.77 99.6401C245.621 99.6401 254.974 96.4666 260.653 90.7878L268.67 102.313C260.653 109.996 248.794 114.004 235.933 114.004ZM257.312 65.0659C256.978 55.5454 250.464 43.6866 234.597 43.6866C219.565 43.6866 212.717 55.2114 211.882 65.0659H257.312ZM53.9578 315H34.4158V220.798H0.676709V203.594H87.6969V220.798H53.9578V315ZM175.911 315H158.373V264.224C158.373 251.697 151.859 247.856 142.005 247.856C133.153 247.856 125.469 253.201 121.294 258.712V315H103.756V203.594H121.294V245.35C126.639 239.003 137.161 232.322 149.855 232.322C167.226 232.322 175.911 241.342 175.911 257.877V315ZM216.224 315H198.687V234.327H216.224V246.186C222.237 238.502 231.925 232.489 242.447 232.489V249.86C240.944 249.526 239.107 249.359 236.935 249.359C229.586 249.359 219.732 254.37 216.224 260.049V315ZM265.276 224.472C259.43 224.472 254.419 219.629 254.419 213.616C254.419 207.603 259.43 202.759 265.276 202.759C271.289 202.759 276.133 207.603 276.133 213.616C276.133 219.629 271.289 224.472 265.276 224.472ZM274.128 315H256.591V234.327H274.128V315ZM318.592 315H301.055V249.693H287.693V234.327H301.055V229.817C301.055 212.279 311.243 201.924 326.61 201.924C333.792 201.924 340.974 203.761 345.985 208.939L339.137 219.796C336.798 217.624 333.792 216.288 329.783 216.288C322.935 216.288 318.592 220.798 318.592 229.817V234.327H334.961V249.693H318.592V315ZM372.478 317.004C358.949 317.004 351.767 309.655 351.767 296.293V249.693H338.405V234.327H351.767V212.279H369.304V234.327H385.673V249.693H369.304V291.951C369.304 297.462 371.977 301.471 376.987 301.471C380.328 301.471 383.501 300.135 384.838 298.632L389.013 311.827C385.84 314.833 380.662 317.004 372.478 317.004ZM572.738 317.004C562.55 317.004 553.363 312.495 546.849 303.809V345.733H529.312V234.327H546.849V245.35C552.862 237.333 562.216 232.322 572.738 232.322C593.617 232.322 608.482 248.023 608.482 274.58C608.482 301.137 593.617 317.004 572.738 317.004ZM567.561 301.471C581.424 301.471 590.276 290.28 590.276 274.58C590.276 259.047 581.424 247.856 567.561 247.856C559.376 247.856 550.691 252.7 546.849 258.712V290.614C550.691 296.46 559.376 301.471 567.561 301.471ZM653.433 317.004C639.736 317.004 627.21 312.662 618.858 304.477L626.875 291.783C632.554 297.629 643.745 303.141 654.268 303.141C664.79 303.141 670.135 298.632 670.135 292.285C670.135 276.417 621.364 287.775 621.364 256.875C621.364 243.68 632.721 232.322 653.098 232.322C666.795 232.322 677.15 237.166 684.499 243.68L677.15 256.04C672.306 250.528 663.287 246.353 653.265 246.353C644.079 246.353 638.233 250.528 638.233 256.207C638.233 270.571 687.005 259.882 687.005 291.951C687.005 306.148 675.146 317.004 653.433 317.004ZM123.607 518H104.065V435.322L69.8252 518H61.4739L27.4008 435.322V518H7.8588V406.594H35.418L65.6496 479.918L96.0482 406.594H123.607V518ZM213.627 518H196.09V509.315C190.077 516.163 180.723 520.004 170.034 520.004C156.839 520.004 141.974 511.152 141.974 493.28C141.974 474.74 156.839 467.057 170.034 467.057C180.89 467.057 190.244 470.565 196.09 477.413V465.387C196.09 456.034 188.407 450.355 177.216 450.355C168.197 450.355 160.346 453.695 153.331 460.543L146.149 448.35C155.503 439.498 167.194 435.322 180.055 435.322C197.927 435.322 213.627 442.839 213.627 464.552V518ZM176.882 507.978C184.565 507.978 192.081 505.139 196.09 499.627V487.434C192.081 481.923 184.565 479.083 176.882 479.083C167.027 479.083 159.678 484.762 159.678 493.614C159.678 502.3 167.027 507.978 176.882 507.978ZM269.102 550.737C255.406 550.737 245.217 547.731 235.363 538.711L243.547 526.017C250.061 533.533 258.412 536.373 269.102 536.373C280.627 536.373 292.987 531.028 292.987 514.492V504.805C286.807 512.822 277.62 518.167 267.098 518.167C246.554 518.167 231.354 503.302 231.354 476.745C231.354 450.689 246.387 435.322 267.098 435.322C277.286 435.322 286.473 439.999 292.987 448.517V437.327H310.524V513.824C310.524 542.887 288.978 550.737 269.102 550.737ZM272.276 502.634C280.46 502.634 289.145 497.79 292.987 491.777V461.712C289.145 455.7 280.46 450.856 272.276 450.856C258.412 450.856 249.56 461.211 249.56 476.745C249.56 492.278 258.412 502.634 272.276 502.634ZM341.938 427.472C336.092 427.472 331.081 422.629 331.081 416.616C331.081 410.603 336.092 405.759 341.938 405.759C347.951 405.759 352.795 410.603 352.795 416.616C352.795 422.629 347.951 427.472 341.938 427.472ZM350.79 518H333.253V437.327H350.79V518ZM410.287 520.004C385.734 520.004 368.53 502.133 368.53 477.58C368.53 453.194 385.734 435.322 410.287 435.322C425.987 435.322 435.508 442.003 441.186 449.687L429.662 460.376C425.152 454.029 418.972 450.856 411.122 450.856C396.424 450.856 386.736 461.879 386.736 477.58C386.736 493.28 396.424 504.471 411.122 504.471C418.972 504.471 425.152 501.13 429.662 494.951L441.186 505.64C435.508 513.323 425.987 520.004 410.287 520.004Z" fill="white"/>
<path d="M454.042 317.004C420.637 317.004 397.087 292.619 397.087 259.381C397.087 226.143 420.637 201.757 454.042 201.757C487.447 201.757 510.998 226.143 510.998 259.381C510.998 292.619 487.447 317.004 454.042 317.004ZM454.042 299.634C476.424 299.634 490.955 282.263 490.955 259.381C490.955 236.331 476.424 219.127 454.042 219.127C431.494 219.127 417.13 236.331 417.13 259.381C417.13 282.263 431.494 299.634 454.042 299.634Z" fill="#FB2D2D"/>
<path d="M53.9578 112V114.827H56.7844V112H53.9578ZM34.4158 112H31.5892V114.827H34.4158V112ZM34.4158 17.7977H37.2424V14.9711H34.4158V17.7977ZM0.676709 17.7977H-2.14987V20.6243H0.676709V17.7977ZM0.676709 0.594106V-2.23248H-2.14987V0.594106H0.676709ZM87.6969 0.594106H90.5235V-2.23248H87.6969V0.594106ZM87.6969 17.7977V20.6243H90.5235V17.7977H87.6969ZM53.9578 17.7977V14.9711H51.1312V17.7977H53.9578ZM53.9578 109.173H34.4158V114.827H53.9578V109.173ZM37.2424 112V17.7977H31.5892V112H37.2424ZM34.4158 14.9711H0.676709V20.6243H34.4158V14.9711ZM3.50329 17.7977V0.594106H-2.14987V17.7977H3.50329ZM0.676709 3.42069H87.6969V-2.23248H0.676709V3.42069ZM84.8703 0.594106V17.7977H90.5235V0.594106H84.8703ZM87.6969 14.9711H53.9578V20.6243H87.6969V14.9711ZM51.1312 17.7977V112H56.7844V17.7977H51.1312ZM175.911 112V114.827H178.738V112H175.911ZM158.373 112H155.547V114.827H158.373V112ZM121.294 55.7125L119.041 54.0056L118.467 54.7627V55.7125H121.294ZM121.294 112V114.827H124.12V112H121.294ZM103.756 112H100.93V114.827H103.756V112ZM103.756 0.594106V-2.23248H100.93V0.594106H103.756ZM121.294 0.594106H124.12V-2.23248H121.294V0.594106ZM121.294 42.3504H118.467V50.0952L123.456 44.1711L121.294 42.3504ZM175.911 109.173H158.373V114.827H175.911V109.173ZM161.2 112V61.2243H155.547V112H161.2ZM161.2 61.2243C161.2 54.4992 159.444 49.481 155.756 46.2239C152.139 43.0298 147.215 42.0292 142.005 42.0292V47.6824C146.649 47.6824 149.909 48.6026 152.013 50.4611C154.046 52.2565 155.547 55.4225 155.547 61.2243H161.2ZM142.005 42.0292C132.041 42.0292 123.597 47.9916 119.041 54.0056L123.547 57.4193C127.342 52.4097 134.265 47.6824 142.005 47.6824V42.0292ZM118.467 55.7125V112H124.12V55.7125H118.467ZM121.294 109.173H103.756V114.827H121.294V109.173ZM106.583 112V0.594106H100.93V112H106.583ZM103.756 3.42069H121.294V-2.23248H103.756V3.42069ZM118.467 0.594106V42.3504H124.12V0.594106H118.467ZM123.456 44.1711C128.351 38.3581 138.122 32.149 149.855 32.149V26.4959C136.201 26.4959 124.926 33.6489 119.132 40.5297L123.456 44.1711ZM149.855 32.149C158.077 32.149 163.762 34.2793 167.403 37.9026C171.042 41.5239 173.084 47.0803 173.084 54.8773H178.738C178.738 46.1388 176.437 38.9179 171.391 33.8956C166.346 28.8753 159.003 26.4959 149.855 26.4959V32.149ZM173.084 54.8773V112H178.738V54.8773H173.084ZM274.349 77.4258V80.2523H277.176V77.4258H274.349ZM212.049 77.4258V74.5992H208.895L209.239 77.7337L212.049 77.4258ZM260.653 90.7878L262.973 89.1736L261.044 86.3997L258.654 88.7891L260.653 90.7878ZM268.67 102.313L270.626 104.353L272.37 102.682L270.99 100.698L268.67 102.313ZM257.312 65.0659V67.8925H260.24L260.137 64.9668L257.312 65.0659ZM211.882 65.0659L209.065 64.8272L208.805 67.8925H211.882V65.0659ZM235.933 111.178C224.491 111.178 214.662 107.202 207.704 100.36C200.755 93.5257 196.502 83.6681 196.502 71.5799H190.849C190.849 85.0466 195.616 96.4011 203.741 104.391C211.857 112.372 223.157 116.831 235.933 116.831V111.178ZM196.502 71.5799C196.502 49.6135 212.414 32.149 234.597 32.149V26.4959C209.011 26.4959 190.849 46.7791 190.849 71.5799H196.502ZM234.597 32.149C245.936 32.149 255.09 36.4658 261.438 43.6392C267.816 50.8453 271.522 61.123 271.522 73.2501H277.176C277.176 59.9894 273.115 48.3033 265.672 39.8925C258.199 31.449 247.476 26.4959 234.597 26.4959V32.149ZM271.522 73.2501V77.4258H277.176V73.2501H271.522ZM274.349 74.5992H212.049V80.2523H274.349V74.5992ZM209.239 77.7337C210.724 91.2848 221.055 102.467 237.77 102.467V96.8135C224.087 96.8135 216.046 87.9524 214.858 77.1178L209.239 77.7337ZM237.77 102.467C246.219 102.467 256.344 99.0938 262.652 92.7865L258.654 88.7891C253.604 93.8395 245.023 96.8135 237.77 96.8135V102.467ZM258.333 92.4019L266.35 103.927L270.99 100.698L262.973 89.1736L258.333 92.4019ZM266.714 100.272C259.344 107.335 248.252 111.178 235.933 111.178V116.831C249.337 116.831 261.962 112.656 270.626 104.353L266.714 100.272ZM260.137 64.9668C259.951 59.6541 258.049 53.6549 253.902 48.9395C249.69 44.15 243.31 40.8601 234.597 40.8601V46.5132C241.751 46.5132 246.562 49.1527 249.657 52.6727C252.818 56.2668 254.34 60.9572 254.488 65.165L260.137 64.9668ZM234.597 40.8601C226.279 40.8601 220.044 44.0819 215.813 48.7917C211.642 53.4337 209.526 59.3895 209.065 64.8272L214.698 65.3046C215.072 60.8877 216.798 56.154 220.018 52.5699C223.177 49.0538 227.883 46.5132 234.597 46.5132V40.8601ZM211.882 67.8925H257.312V62.2393H211.882V67.8925ZM53.9578 315V317.827H56.7844V315H53.9578ZM34.4158 315H31.5892V317.827H34.4158V315ZM34.4158 220.798H37.2424V217.971H34.4158V220.798ZM0.676709 220.798H-2.14987V223.624H0.676709V220.798ZM0.676709 203.594V200.768H-2.14987V203.594H0.676709ZM87.6969 203.594H90.5235V200.768H87.6969V203.594ZM87.6969 220.798V223.624H90.5235V220.798H87.6969ZM53.9578 220.798V217.971H51.1312V220.798H53.9578ZM53.9578 312.173H34.4158V317.827H53.9578V312.173ZM37.2424 315V220.798H31.5892V315H37.2424ZM34.4158 217.971H0.676709V223.624H34.4158V217.971ZM3.50329 220.798V203.594H-2.14987V220.798H3.50329ZM0.676709 206.421H87.6969V200.768H0.676709V206.421ZM84.8703 203.594V220.798H90.5235V203.594H84.8703ZM87.6969 217.971H53.9578V223.624H87.6969V217.971ZM51.1312 220.798V315H56.7844V220.798H51.1312ZM175.911 315V317.827H178.738V315H175.911ZM158.373 315H155.547V317.827H158.373V315ZM121.294 258.712L119.041 257.006L118.467 257.763V258.712H121.294ZM121.294 315V317.827H124.12V315H121.294ZM103.756 315H100.93V317.827H103.756V315ZM103.756 203.594V200.768H100.93V203.594H103.756ZM121.294 203.594H124.12V200.768H121.294V203.594ZM121.294 245.35H118.467V253.095L123.456 247.171L121.294 245.35ZM175.911 312.173H158.373V317.827H175.911V312.173ZM161.2 315V264.224H155.547V315H161.2ZM161.2 264.224C161.2 257.499 159.444 252.481 155.756 249.224C152.139 246.03 147.215 245.029 142.005 245.029V250.682C146.649 250.682 149.909 251.603 152.013 253.461C154.046 255.256 155.547 258.422 155.547 264.224H161.2ZM142.005 245.029C132.041 245.029 123.597 250.992 119.041 257.006L123.547 260.419C127.342 255.41 134.265 250.682 142.005 250.682V245.029ZM118.467 258.712V315H124.12V258.712H118.467ZM121.294 312.173H103.756V317.827H121.294V312.173ZM106.583 315V203.594H100.93V315H106.583ZM103.756 206.421H121.294V200.768H103.756V206.421ZM118.467 203.594V245.35H124.12V203.594H118.467ZM123.456 247.171C128.351 241.358 138.122 235.149 149.855 235.149V229.496C136.201 229.496 124.926 236.649 119.132 243.53L123.456 247.171ZM149.855 235.149C158.077 235.149 163.762 237.279 167.403 240.903C171.042 244.524 173.084 250.08 173.084 257.877H178.738C178.738 249.139 176.437 241.918 171.391 236.896C166.346 231.875 159.003 229.496 149.855 229.496V235.149ZM173.084 257.877V315H178.738V257.877H173.084ZM216.224 315V317.827H219.051V315H216.224ZM198.687 315H195.86V317.827H198.687V315ZM198.687 234.327V231.5H195.86V234.327H198.687ZM216.224 234.327H219.051V231.5H216.224V234.327ZM216.224 246.186H213.398V254.384L218.45 247.928L216.224 246.186ZM242.447 232.489H245.274V229.663H242.447V232.489ZM242.447 249.86L241.834 252.619L245.274 253.384V249.86H242.447ZM216.224 260.049L213.819 258.563L213.398 259.246V260.049H216.224ZM216.224 312.173H198.687V317.827H216.224V312.173ZM201.513 315V234.327H195.86V315H201.513ZM198.687 237.153H216.224V231.5H198.687V237.153ZM213.398 234.327V246.186H219.051V234.327H213.398ZM218.45 247.928C224.059 240.761 232.987 235.316 242.447 235.316V229.663C230.862 229.663 220.415 236.244 213.998 244.444L218.45 247.928ZM239.621 232.489V249.86H245.274V232.489H239.621ZM243.06 247.101C241.293 246.708 239.236 246.532 236.935 246.532V252.186C238.977 252.186 240.595 252.344 241.834 252.619L243.06 247.101ZM236.935 246.532C232.691 246.532 227.944 247.956 223.848 250.06C219.777 252.151 215.945 255.122 213.819 258.563L218.629 261.534C220.011 259.296 222.86 256.923 226.431 255.089C229.975 253.268 233.831 252.186 236.935 252.186V246.532ZM213.398 260.049V315H219.051V260.049H213.398ZM274.128 315V317.827H276.955V315H274.128ZM256.591 315H253.764V317.827H256.591V315ZM256.591 234.327V231.5H253.764V234.327H256.591ZM274.128 234.327H276.955V231.5H274.128V234.327ZM265.276 221.646C260.963 221.646 257.246 218.039 257.246 213.616H251.593C251.593 221.218 257.897 227.299 265.276 227.299V221.646ZM257.246 213.616C257.246 209.192 260.963 205.586 265.276 205.586V199.932C257.897 199.932 251.593 206.014 251.593 213.616H257.246ZM265.276 205.586C269.728 205.586 273.306 209.164 273.306 213.616H278.959C278.959 206.042 272.85 199.932 265.276 199.932V205.586ZM273.306 213.616C273.306 218.067 269.728 221.646 265.276 221.646V227.299C272.85 227.299 278.959 221.19 278.959 213.616H273.306ZM274.128 312.173H256.591V317.827H274.128V312.173ZM259.417 315V234.327H253.764V315H259.417ZM256.591 237.153H274.128V231.5H256.591V237.153ZM271.302 234.327V315H276.955V234.327H271.302ZM318.592 315V317.827H321.419V315H318.592ZM301.055 315H298.228V317.827H301.055V315ZM301.055 249.693H303.881V246.867H301.055V249.693ZM287.693 249.693H284.866V252.52H287.693V249.693ZM287.693 234.327V231.5H284.866V234.327H287.693ZM301.055 234.327V237.153H303.881V234.327H301.055ZM345.985 208.939L348.375 210.447L349.56 208.569L348.016 206.973L345.985 208.939ZM339.137 219.796L337.213 221.867L339.71 224.185L341.527 221.304L339.137 219.796ZM318.592 234.327H315.766V237.153H318.592V234.327ZM334.961 234.327H337.787V231.5H334.961V234.327ZM334.961 249.693V252.52H337.787V249.693H334.961ZM318.592 249.693V246.867H315.766V249.693H318.592ZM318.592 312.173H301.055V317.827H318.592V312.173ZM303.881 315V249.693H298.228V315H303.881ZM301.055 246.867H287.693V252.52H301.055V246.867ZM290.519 249.693V234.327H284.866V249.693H290.519ZM287.693 237.153H301.055V231.5H287.693V237.153ZM303.881 234.327V229.817H298.228V234.327H303.881ZM303.881 229.817C303.881 221.59 306.264 215.366 310.135 211.224C313.988 207.1 319.584 204.75 326.61 204.75V199.097C318.269 199.097 311.087 201.925 306.005 207.364C300.94 212.784 298.228 220.507 298.228 229.817H303.881ZM326.61 204.75C333.38 204.75 339.679 206.488 343.953 210.905L348.016 206.973C342.268 201.034 334.204 199.097 326.61 199.097V204.75ZM343.594 207.431L336.746 218.288L341.527 221.304L348.375 210.447L343.594 207.431ZM341.06 217.724C338.197 215.066 334.502 213.461 329.783 213.461V219.115C333.081 219.115 335.4 220.183 337.213 221.867L341.06 217.724ZM329.783 213.461C325.708 213.461 322.059 214.828 319.478 217.826C316.949 220.762 315.766 224.892 315.766 229.817H321.419C321.419 225.722 322.407 223.088 323.762 221.515C325.064 220.003 327.011 219.115 329.783 219.115V213.461ZM315.766 229.817V234.327H321.419V229.817H315.766ZM318.592 237.153H334.961V231.5H318.592V237.153ZM332.134 234.327V249.693H337.787V234.327H332.134ZM334.961 246.867H318.592V252.52H334.961V246.867ZM315.766 249.693V315H321.419V249.693H315.766ZM351.767 249.693H354.593V246.867H351.767V249.693ZM338.405 249.693H335.578V252.52H338.405V249.693ZM338.405 234.327V231.5H335.578V234.327H338.405ZM351.767 234.327V237.153H354.593V234.327H351.767ZM351.767 212.279V209.453H348.94V212.279H351.767ZM369.304 212.279H372.131V209.453H369.304V212.279ZM369.304 234.327H366.478V237.153H369.304V234.327ZM385.673 234.327H388.499V231.5H385.673V234.327ZM385.673 249.693V252.52H388.499V249.693H385.673ZM369.304 249.693V246.867H366.478V249.693H369.304ZM384.838 298.632L387.532 297.779L386.031 293.034L382.725 296.754L384.838 298.632ZM389.013 311.827L390.957 313.878L392.242 312.661L391.708 310.974L389.013 311.827ZM372.478 314.178C366.209 314.178 361.852 312.482 359.053 309.667C356.252 306.848 354.593 302.487 354.593 296.293H348.94C348.94 303.461 350.873 309.456 355.044 313.652C359.218 317.852 365.218 319.831 372.478 319.831V314.178ZM354.593 296.293V249.693H348.94V296.293H354.593ZM351.767 246.867H338.405V252.52H351.767V246.867ZM341.231 249.693V234.327H335.578V249.693H341.231ZM338.405 237.153H351.767V231.5H338.405V237.153ZM354.593 234.327V212.279H348.94V234.327H354.593ZM351.767 215.106H369.304V209.453H351.767V215.106ZM366.478 212.279V234.327H372.131V212.279H366.478ZM369.304 237.153H385.673V231.5H369.304V237.153ZM382.846 234.327V249.693H388.499V234.327H382.846ZM385.673 246.867H369.304V252.52H385.673V246.867ZM366.478 249.693V291.951H372.131V249.693H366.478ZM366.478 291.951C366.478 295.121 367.242 298.17 369.022 300.496C370.873 302.913 373.637 304.298 376.987 304.298V298.644C375.327 298.644 374.25 298.025 373.511 297.06C372.703 296.004 372.131 294.291 372.131 291.951H366.478ZM376.987 304.298C379.02 304.298 380.987 303.894 382.665 303.258C384.298 302.64 385.876 301.717 386.95 300.509L382.725 296.754C382.463 297.049 381.786 297.546 380.663 297.972C379.585 298.38 378.295 298.644 376.987 298.644V304.298ZM382.143 299.484L386.318 312.679L391.708 310.974L387.532 297.779L382.143 299.484ZM387.069 309.775C384.566 312.146 380.167 314.178 372.478 314.178V319.831C381.157 319.831 387.113 317.52 390.957 313.878L387.069 309.775ZM454.042 314.178C422.247 314.178 399.913 291.107 399.913 259.381H394.26C394.26 294.13 419.027 319.831 454.042 319.831V314.178ZM399.913 259.381C399.913 227.654 422.247 204.583 454.042 204.583V198.93C419.027 198.93 394.26 224.631 394.26 259.381H399.913ZM454.042 204.583C485.837 204.583 508.171 227.654 508.171 259.381H513.824C513.824 224.631 489.057 198.93 454.042 198.93V204.583ZM508.171 259.381C508.171 291.107 485.837 314.178 454.042 314.178V319.831C489.057 319.831 513.824 294.13 513.824 259.381H508.171ZM454.042 302.46C466.012 302.46 476.016 297.793 483 289.97C489.957 282.177 493.781 271.413 493.781 259.381H488.128C488.128 270.231 484.686 279.593 478.783 286.206C472.906 292.789 464.453 296.807 454.042 296.807V302.46ZM493.781 259.381C493.781 247.269 489.96 236.501 482.997 228.725C476.009 220.92 466.004 216.301 454.042 216.301V221.954C464.462 221.954 472.913 225.937 478.786 232.496C484.684 239.084 488.128 248.443 488.128 259.381H493.781ZM454.042 216.301C442.001 216.301 431.993 220.917 425.021 228.728C418.078 236.509 414.303 247.277 414.303 259.381H419.956C419.956 248.435 423.363 239.077 429.239 232.493C435.087 225.94 443.534 221.954 454.042 221.954V216.301ZM414.303 259.381C414.303 271.404 418.08 282.17 425.019 289.967C431.985 297.796 441.993 302.46 454.042 302.46V296.807C443.543 296.807 435.094 292.786 429.242 286.209C423.361 279.6 419.956 270.239 419.956 259.381H414.303ZM546.849 303.809L549.111 302.113L544.023 295.33V303.809H546.849ZM546.849 345.733V348.559H549.676V345.733H546.849ZM529.312 345.733H526.485V348.559H529.312V345.733ZM529.312 234.327V231.5H526.485V234.327H529.312ZM546.849 234.327H549.676V231.5H546.849V234.327ZM546.849 245.35H544.023V253.83L549.111 247.046L546.849 245.35ZM546.849 258.712L544.468 257.191L544.023 257.887V258.712H546.849ZM546.849 290.614H544.023V291.46L544.487 292.167L546.849 290.614ZM572.738 314.178C563.456 314.178 555.101 310.1 549.111 302.113L544.588 305.505C551.626 314.889 561.644 319.831 572.738 319.831V314.178ZM544.023 303.809V345.733H549.676V303.809H544.023ZM546.849 342.906H529.312V348.559H546.849V342.906ZM532.138 345.733V234.327H526.485V345.733H532.138ZM529.312 237.153H546.849V231.5H529.312V237.153ZM544.023 234.327V245.35H549.676V234.327H544.023ZM549.111 247.046C554.614 239.709 563.145 235.149 572.738 235.149V229.496C561.287 229.496 551.111 234.958 544.588 243.654L549.111 247.046ZM572.738 235.149C582.427 235.149 590.562 238.769 596.31 245.351C602.087 251.967 605.655 261.816 605.655 274.58H611.308C611.308 260.787 607.444 249.507 600.569 241.633C593.664 233.726 583.928 229.496 572.738 229.496V235.149ZM605.655 274.58C605.655 287.344 602.086 297.239 596.305 303.898C590.553 310.523 582.417 314.178 572.738 314.178V319.831C583.938 319.831 593.674 315.552 600.574 307.604C607.445 299.69 611.308 288.373 611.308 274.58H605.655ZM567.561 304.298C575.319 304.298 581.801 301.136 586.293 295.717C590.745 290.346 593.103 282.941 593.103 274.58H587.449C587.449 281.919 585.381 287.959 581.941 292.109C578.541 296.21 573.665 298.644 567.561 298.644V304.298ZM593.103 274.58C593.103 266.296 590.741 258.932 586.289 253.584C581.798 248.19 575.318 245.029 567.561 245.029V250.682C573.666 250.682 578.544 253.117 581.945 257.201C585.385 261.333 587.449 267.331 587.449 274.58H593.103ZM567.561 245.029C558.458 245.029 548.853 250.327 544.468 257.191L549.231 260.234C552.529 255.072 560.295 250.682 567.561 250.682V245.029ZM544.023 258.712V290.614H549.676V258.712H544.023ZM544.487 292.167C546.717 295.559 550.238 298.566 554.234 300.722C558.239 302.884 562.915 304.298 567.561 304.298V298.644C564.022 298.644 560.263 297.552 556.919 295.747C553.566 293.937 550.824 291.515 549.212 289.062L544.487 292.167ZM618.858 304.477L616.468 302.968L615.249 304.898L616.88 306.496L618.858 304.477ZM626.875 291.783L628.903 289.814L626.402 287.24L624.486 290.274L626.875 291.783ZM684.499 243.68L686.929 245.125L688.123 243.115L686.374 241.565L684.499 243.68ZM677.15 256.04L675.027 257.906L677.593 260.826L679.58 257.485L677.15 256.04ZM653.433 314.178C640.289 314.178 628.539 310.007 620.837 302.459L616.88 306.496C625.88 315.316 639.184 319.831 653.433 319.831V314.178ZM621.248 305.987L629.265 293.293L624.486 290.274L616.468 302.968L621.248 305.987ZM624.848 293.753C631.024 300.11 642.932 305.968 654.268 305.968V300.315C644.558 300.315 634.085 295.148 628.903 289.814L624.848 293.753ZM654.268 305.968C659.884 305.968 664.508 304.771 667.806 302.382C671.203 299.921 672.962 296.349 672.962 292.285H667.308C667.308 294.567 666.395 296.424 664.489 297.804C662.483 299.257 659.173 300.315 654.268 300.315V305.968ZM672.962 292.285C672.962 289.46 671.832 287.181 669.987 285.427C668.238 283.763 665.907 282.622 663.474 281.744C658.726 280.032 652.194 278.895 646.426 277.473C640.379 275.982 634.784 274.118 630.711 270.975C626.815 267.968 624.19 263.702 624.19 256.875H618.537C618.537 265.498 622.009 271.4 627.257 275.45C632.329 279.364 638.926 281.446 645.073 282.961C651.497 284.546 657.158 285.476 661.555 287.062C663.695 287.834 665.173 288.65 666.091 289.523C666.914 290.306 667.308 291.142 667.308 292.285H672.962ZM624.19 256.875C624.19 251.134 626.643 245.785 631.399 241.822C636.176 237.841 643.426 235.149 653.098 235.149V229.496C642.394 229.496 633.776 232.483 627.78 237.479C621.763 242.494 618.537 249.421 618.537 256.875H624.19ZM653.098 235.149C666.074 235.149 675.769 239.719 682.624 245.795L686.374 241.565C678.531 234.613 667.515 229.496 653.098 229.496V235.149ZM682.07 242.236L674.721 254.595L679.58 257.485L686.929 245.125L682.07 242.236ZM679.273 254.174C673.824 247.973 663.989 243.526 653.265 243.526V249.179C662.585 249.179 670.789 253.084 675.027 257.906L679.273 254.174ZM653.265 243.526C648.281 243.526 643.928 244.654 640.728 246.804C637.472 248.992 635.407 252.274 635.407 256.207H641.06C641.06 254.461 641.917 252.816 643.881 251.496C645.901 250.139 649.064 249.179 653.265 249.179V243.526ZM635.407 256.207C635.407 258.95 636.628 261.1 638.488 262.696C640.239 264.2 642.559 265.226 644.963 266.025C647.399 266.834 650.193 267.494 653.048 268.132C655.948 268.78 658.924 269.409 661.916 270.177C667.932 271.723 673.523 273.721 677.597 277.046C681.514 280.243 684.178 284.785 684.178 291.951H689.831C689.831 283.081 686.399 276.934 681.171 272.667C676.1 268.528 669.498 266.288 663.322 264.702C660.217 263.904 657.097 263.244 654.281 262.615C651.421 261.975 648.881 261.369 646.745 260.66C644.576 259.939 643.086 259.193 642.17 258.407C641.362 257.713 641.06 257.055 641.06 256.207H635.407ZM684.178 291.951C684.178 298.194 681.601 303.637 676.608 307.584C671.561 311.574 663.845 314.178 653.433 314.178V319.831C664.733 319.831 673.804 317.007 680.114 312.019C686.478 306.988 689.831 299.904 689.831 291.951H684.178ZM123.607 518V520.827H126.434V518H123.607ZM104.065 518H101.239V520.827H104.065V518ZM104.065 435.322H106.892L101.454 434.241L104.065 435.322ZM69.8252 518V520.827H71.714L72.4367 519.082L69.8252 518ZM61.4739 518L58.8606 519.077L59.5816 520.827H61.4739V518ZM27.4008 435.322L30.0141 434.245L24.5742 435.322H27.4008ZM27.4008 518V520.827H30.2273V518H27.4008ZM7.8588 518H5.03222V520.827H7.8588V518ZM7.8588 406.594V403.768H5.03222V406.594H7.8588ZM35.418 406.594L38.0312 405.517L37.31 403.768H35.418V406.594ZM65.6496 479.918L63.0364 480.996L65.6424 487.316L68.2606 481.001L65.6496 479.918ZM96.0482 406.594V403.768H94.1601L93.4371 405.512L96.0482 406.594ZM123.607 406.594H126.434V403.768H123.607V406.594ZM123.607 515.173H104.065V520.827H123.607V515.173ZM106.892 518V435.322H101.239V518H106.892ZM101.454 434.241L67.2137 516.918L72.4367 519.082L106.677 436.404L101.454 434.241ZM69.8252 515.173H61.4739V520.827H69.8252V515.173ZM64.0873 516.923L30.0141 434.245L24.7874 436.399L58.8606 519.077L64.0873 516.923ZM24.5742 435.322V518H30.2273V435.322H24.5742ZM27.4008 515.173H7.8588V520.827H27.4008V515.173ZM10.6854 518V406.594H5.03222V518H10.6854ZM7.8588 409.421H35.418V403.768H7.8588V409.421ZM32.8048 407.672L63.0364 480.996L68.2627 478.841L38.0312 405.517L32.8048 407.672ZM68.2606 481.001L98.6593 407.677L93.4371 405.512L63.0385 478.836L68.2606 481.001ZM96.0482 409.421H123.607V403.768H96.0482V409.421ZM120.781 406.594V518H126.434V406.594H120.781ZM213.627 518V520.827H216.454V518H213.627ZM196.09 518H193.263V520.827H196.09V518ZM196.09 509.315H198.916V501.812L193.966 507.45L196.09 509.315ZM196.09 477.413L193.94 479.248L198.916 485.078V477.413H196.09ZM153.331 460.543L150.896 461.978L152.726 465.085L155.306 462.566L153.331 460.543ZM146.149 448.35L144.206 446.298L142.571 447.845L143.714 449.785L146.149 448.35ZM196.09 499.627L198.376 501.29L198.916 500.546V499.627H196.09ZM196.09 487.434H198.916V486.515L198.376 485.772L196.09 487.434ZM213.627 515.173H196.09V520.827H213.627V515.173ZM198.916 518V509.315H193.263V518H198.916ZM193.966 507.45C188.583 513.58 180.064 517.178 170.034 517.178V522.831C181.383 522.831 191.571 518.745 198.214 511.18L193.966 507.45ZM170.034 517.178C157.88 517.178 144.8 509.117 144.8 493.28H139.147C139.147 513.187 155.798 522.831 170.034 522.831V517.178ZM144.8 493.28C144.8 484.863 148.13 479.129 152.808 475.434C157.576 471.668 163.935 469.884 170.034 469.884V464.231C162.938 464.231 155.266 466.288 149.304 470.998C143.25 475.78 139.147 483.158 139.147 493.28H144.8ZM170.034 469.884C180.323 469.884 188.78 473.203 193.94 479.248L198.24 475.578C191.708 467.927 181.458 464.231 170.034 464.231V469.884ZM198.916 477.413V465.387H193.263V477.413H198.916ZM198.916 465.387C198.916 459.852 196.604 455.267 192.588 452.134C188.643 449.058 183.256 447.528 177.216 447.528V453.181C182.366 453.181 186.416 454.491 189.111 456.592C191.734 458.638 193.263 461.568 193.263 465.387H198.916ZM177.216 447.528C167.394 447.528 158.851 451.204 151.357 458.521L155.306 462.566C161.841 456.186 168.999 453.181 177.216 453.181V447.528ZM155.767 459.109L148.585 446.916L143.714 449.785L150.896 461.978L155.767 459.109ZM148.092 450.403C156.868 442.097 167.842 438.149 180.055 438.149V432.496C166.547 432.496 154.137 436.899 144.206 446.298L148.092 450.403ZM180.055 438.149C188.662 438.149 196.367 439.969 201.854 444.061C207.202 448.049 210.801 454.462 210.801 464.552H216.454C216.454 452.928 212.203 444.726 205.233 439.529C198.401 434.434 189.321 432.496 180.055 432.496V438.149ZM210.801 464.552V518H216.454V464.552H210.801ZM176.882 510.805C185.132 510.805 193.664 507.769 198.376 501.29L193.804 497.965C190.499 502.509 183.998 505.152 176.882 505.152V510.805ZM198.916 499.627V487.434H193.263V499.627H198.916ZM198.376 485.772C193.664 479.293 185.132 476.257 176.882 476.257V481.91C183.998 481.91 190.499 484.552 193.804 489.097L198.376 485.772ZM176.882 476.257C171.432 476.257 166.457 477.827 162.788 480.847C159.073 483.905 156.852 488.336 156.852 493.614H162.505C162.505 490.041 163.958 487.206 166.381 485.211C168.851 483.179 172.478 481.91 176.882 481.91V476.257ZM156.852 493.614C156.852 498.826 159.087 503.214 162.797 506.243C166.462 509.235 171.432 510.805 176.882 510.805V505.152C172.478 505.152 168.845 503.883 166.372 501.864C163.945 499.882 162.505 497.087 162.505 493.614H156.852ZM235.363 538.711L232.987 537.179L231.694 539.185L233.455 540.796L235.363 538.711ZM243.547 526.017L245.683 524.166L243.214 521.317L241.172 524.486L243.547 526.017ZM292.987 504.805H295.813V496.508L290.748 503.079L292.987 504.805ZM292.987 448.517L290.741 450.234L295.813 456.867V448.517H292.987ZM292.987 437.327V434.5H290.16V437.327H292.987ZM310.524 437.327H313.351V434.5H310.524V437.327ZM292.987 491.777L295.369 493.299L295.813 492.603V491.777H292.987ZM292.987 461.712H295.813V460.887L295.369 460.191L292.987 461.712ZM269.102 547.91C255.938 547.91 246.489 545.063 237.271 536.626L233.455 540.796C243.946 550.398 254.873 553.564 269.102 553.564V547.91ZM237.739 540.243L245.923 527.549L241.172 524.486L232.987 537.179L237.739 540.243ZM241.411 527.868C248.607 536.172 257.844 539.199 269.102 539.199V533.546C258.98 533.546 251.515 530.895 245.683 524.166L241.411 527.868ZM269.102 539.199C275.238 539.199 281.882 537.785 287.064 533.893C292.374 529.905 295.813 523.559 295.813 514.492H290.16C290.16 521.961 287.419 526.556 283.669 529.373C279.789 532.288 274.49 533.546 269.102 533.546V539.199ZM295.813 514.492V504.805H290.16V514.492H295.813ZM290.748 503.079C285.016 510.515 276.61 515.34 267.098 515.34V520.994C278.63 520.994 288.597 515.129 295.225 506.531L290.748 503.079ZM267.098 515.34C257.537 515.34 249.394 511.9 243.618 505.518C237.822 499.114 234.181 489.491 234.181 476.745H228.528C228.528 490.556 232.486 501.643 239.426 509.311C246.386 517.001 256.114 520.994 267.098 520.994V515.34ZM234.181 476.745C234.181 464.253 237.779 454.62 243.566 448.147C249.332 441.698 257.477 438.149 267.098 438.149V432.496C256.007 432.496 246.28 436.63 239.352 444.379C232.446 452.103 228.528 463.18 228.528 476.745H234.181ZM267.098 438.149C276.355 438.149 284.73 442.374 290.741 450.234L295.232 446.8C288.215 437.624 278.218 432.496 267.098 432.496V438.149ZM295.813 448.517V437.327H290.16V448.517H295.813ZM292.987 440.153H310.524V434.5H292.987V440.153ZM307.698 437.327V513.824H313.351V437.327H307.698ZM307.698 513.824C307.698 527.555 302.666 535.873 295.629 540.875C288.429 545.994 278.744 547.91 269.102 547.91V553.564C279.336 553.564 290.363 551.555 298.904 545.483C307.61 539.294 313.351 529.156 313.351 513.824H307.698ZM272.276 505.46C281.378 505.46 290.983 500.163 295.369 493.299L290.605 490.255C287.307 495.417 279.541 499.807 272.276 499.807V505.46ZM295.813 491.777V461.712H290.16V491.777H295.813ZM295.369 460.191C290.983 453.327 281.378 448.029 272.276 448.029V453.682C279.541 453.682 287.307 458.072 290.605 463.234L295.369 460.191ZM272.276 448.029C264.592 448.029 258.112 450.924 253.588 456.119C249.098 461.273 246.733 468.456 246.733 476.745H252.387C252.387 469.5 254.448 463.738 257.851 459.832C261.218 455.965 266.096 453.682 272.276 453.682V448.029ZM246.733 476.745C246.733 485.033 249.098 492.216 253.588 497.371C258.112 502.565 264.592 505.46 272.276 505.46V499.807C266.096 499.807 261.218 497.525 257.851 493.658C254.448 489.751 252.387 483.99 252.387 476.745H246.733ZM350.79 518V520.827H353.617V518H350.79ZM333.253 518H330.426V520.827H333.253V518ZM333.253 437.327V434.5H330.426V437.327H333.253ZM350.79 437.327H353.617V434.5H350.79V437.327ZM341.938 424.646C337.625 424.646 333.908 421.039 333.908 416.616H328.255C328.255 424.218 334.559 430.299 341.938 430.299V424.646ZM333.908 416.616C333.908 412.192 337.625 408.586 341.938 408.586V402.932C334.559 402.932 328.255 409.014 328.255 416.616H333.908ZM341.938 408.586C346.39 408.586 349.968 412.164 349.968 416.616H355.621C355.621 409.042 349.512 402.932 341.938 402.932V408.586ZM349.968 416.616C349.968 421.067 346.39 424.646 341.938 424.646V430.299C349.512 430.299 355.621 424.19 355.621 416.616H349.968ZM350.79 515.173H333.253V520.827H350.79V515.173ZM336.079 518V437.327H330.426V518H336.079ZM333.253 440.153H350.79V434.5H333.253V440.153ZM347.964 437.327V518H353.617V437.327H347.964ZM441.186 449.687L443.109 451.759L444.962 450.04L443.459 448.007L441.186 449.687ZM429.662 460.376L427.357 462.013L429.223 464.639L431.584 462.449L429.662 460.376ZM429.662 494.951L431.584 492.878L429.253 490.716L427.378 493.284L429.662 494.951ZM441.186 505.64L443.459 507.32L444.962 505.287L443.109 503.568L441.186 505.64ZM410.287 517.178C387.354 517.178 371.357 500.632 371.357 477.58H365.704C365.704 503.634 384.114 522.831 410.287 522.831V517.178ZM371.357 477.58C371.357 454.703 387.347 438.149 410.287 438.149V432.496C384.121 432.496 365.704 451.686 365.704 477.58H371.357ZM410.287 438.149C425.037 438.149 433.735 444.36 438.913 451.367L443.459 448.007C437.28 439.647 426.937 432.496 410.287 432.496V438.149ZM439.264 447.614L427.739 458.304L431.584 462.449L443.109 451.759L439.264 447.614ZM431.966 458.739C426.921 451.639 419.878 448.029 411.122 448.029V453.682C418.066 453.682 423.383 456.42 427.357 462.013L431.966 458.739ZM411.122 448.029C403.024 448.029 396.148 451.087 391.319 456.436C386.514 461.759 383.91 469.154 383.91 477.58H389.563C389.563 470.306 391.802 464.338 395.515 460.224C399.205 456.137 404.521 453.682 411.122 453.682V448.029ZM383.91 477.58C383.91 486.005 386.513 493.436 391.311 498.798C396.133 504.188 403.011 507.298 411.122 507.298V501.644C404.535 501.644 399.219 499.159 395.524 495.028C391.803 490.87 389.563 484.855 389.563 477.58H383.91ZM411.122 507.298C419.915 507.298 426.927 503.493 431.945 496.617L427.378 493.284C423.377 498.768 418.029 501.644 411.122 501.644V507.298ZM427.739 497.023L439.264 507.712L443.109 503.568L431.584 492.878L427.739 497.023ZM438.913 503.96C433.735 510.966 425.037 517.178 410.287 517.178V522.831C426.937 522.831 437.28 515.68 443.459 507.32L438.913 503.96Z" fill="black" mask="url(#path-1-outside-1_1370_20)"/>
</svg>
