<svg width="1456" height="137" viewBox="0 0 1456 137" fill="none" xmlns="http://www.w3.org/2000/svg">
<mask id="path-1-outside-1_1369_19" maskUnits="userSpaceOnUse" x="-2" y="-2" width="1461" height="142" fill="black">
<rect fill="white" x="-2" y="-2" width="1461" height="142"/>
<path d="M69.5062 114H0.858798V2.59411H20.4008V96.7964H69.5062V114ZM95.3286 23.4723C89.4827 23.4723 84.4719 18.6285 84.4719 12.6156C84.4719 6.60272 89.4827 1.75898 95.3286 1.75898C101.341 1.75898 106.185 6.60272 106.185 12.6156C106.185 18.6285 101.341 23.4723 95.3286 23.4723ZM104.181 114H86.6433V33.3268H104.181V114ZM154.491 116.004C140.795 116.004 128.268 111.662 119.917 103.477L127.934 90.7835C133.613 96.6294 144.803 102.141 155.326 102.141C165.848 102.141 171.193 97.6315 171.193 91.2846C171.193 75.4172 122.422 86.7749 122.422 55.8752C122.422 42.6802 133.78 31.3225 154.157 31.3225C167.853 31.3225 178.208 36.1662 185.557 42.6802L178.208 55.0401C173.365 49.5282 164.345 45.3526 154.324 45.3526C145.137 45.3526 139.291 49.5282 139.291 55.2071C139.291 69.5713 188.063 58.8816 188.063 90.9505C188.063 105.148 176.204 116.004 154.491 116.004ZM229.933 116.004C216.404 116.004 209.222 108.655 209.222 95.2932V48.6931H195.86V33.3268H209.222V11.2794H226.759V33.3268H243.128V48.6931H226.759V90.9505C226.759 96.4623 229.432 100.471 234.442 100.471C237.783 100.471 240.956 99.1347 242.293 97.6315L246.468 110.827C243.295 113.833 238.117 116.004 229.933 116.004ZM418.199 114H398.657V31.3225L364.417 114H356.066L321.992 31.3225V114H302.45V2.59411H330.01L360.241 75.9182L390.64 2.59411H418.199V114ZM477.82 116.004C452.266 116.004 436.398 96.7964 436.398 73.5799C436.398 50.5304 452.266 31.3225 477.82 31.3225C503.709 31.3225 519.41 50.5304 519.41 73.5799C519.41 96.7964 503.709 116.004 477.82 116.004ZM477.82 100.471C492.853 100.471 501.204 87.9441 501.204 73.5799C501.204 59.3827 492.853 46.8558 477.82 46.8558C462.955 46.8558 454.604 59.3827 454.604 73.5799C454.604 87.9441 462.955 100.471 477.82 100.471ZM554.693 114H537.155V33.3268H554.693V45.1856C560.705 37.5024 570.393 31.4895 580.916 31.4895V48.8601C579.412 48.5261 577.575 48.3591 575.404 48.3591C568.055 48.3591 558.2 53.3698 554.693 59.0487V114ZM632.306 116.004C608.087 116.004 590.048 99.1347 590.048 73.5799C590.048 50.1963 607.085 31.3225 630.97 31.3225C655.188 31.3225 670.722 49.8623 670.722 75.2501V79.4258H608.421C609.757 91.6186 618.944 101.64 634.143 101.64C641.993 101.64 651.347 98.4666 657.026 92.7878L665.043 104.313C657.026 111.996 645.167 116.004 632.306 116.004ZM653.685 67.0659C653.351 57.5454 646.837 45.6866 630.97 45.6866C615.937 45.6866 609.089 57.2114 608.254 67.0659H653.685ZM708.93 107.653C708.93 119.178 702.416 129.7 693.23 136.214L685.379 129.7C690.724 126.527 696.236 119.679 697.405 114C696.904 114.167 695.568 114.501 694.566 114.501C688.887 114.501 684.544 110.158 684.544 103.978C684.544 97.6315 689.722 92.4537 695.902 92.4537C702.75 92.4537 708.93 97.9656 708.93 107.653ZM1202.92 114H1183.38V31.3225L1149.14 114H1140.79L1106.72 31.3225V114H1087.18V2.59411H1114.73L1144.97 75.9182L1175.37 2.59411H1202.92V114ZM1262.55 116.004C1236.99 116.004 1221.12 96.7964 1221.12 73.5799C1221.12 50.5304 1236.99 31.3225 1262.55 31.3225C1288.43 31.3225 1304.14 50.5304 1304.14 73.5799C1304.14 96.7964 1288.43 116.004 1262.55 116.004ZM1262.55 100.471C1277.58 100.471 1285.93 87.9441 1285.93 73.5799C1285.93 59.3827 1277.58 46.8558 1262.55 46.8558C1247.68 46.8558 1239.33 59.3827 1239.33 73.5799C1239.33 87.9441 1247.68 100.471 1262.55 100.471ZM1339.42 114H1321.88V33.3268H1339.42V45.1856C1345.43 37.5024 1355.12 31.4895 1365.64 31.4895V48.8601C1364.14 48.5261 1362.3 48.3591 1360.13 48.3591C1352.78 48.3591 1342.93 53.3698 1339.42 59.0487V114ZM1417.03 116.004C1392.81 116.004 1374.77 99.1347 1374.77 73.5799C1374.77 50.1963 1391.81 31.3225 1415.7 31.3225C1439.91 31.3225 1455.45 49.8623 1455.45 75.2501V79.4258H1393.15C1394.48 91.6186 1403.67 101.64 1418.87 101.64C1426.72 101.64 1436.07 98.4666 1441.75 92.7878L1449.77 104.313C1441.75 111.996 1429.89 116.004 1417.03 116.004ZM1438.41 67.0659C1438.08 57.5454 1431.56 45.6866 1415.7 45.6866C1400.66 45.6866 1393.81 57.2114 1392.98 67.0659H1438.41Z"/>
<path d="M809.638 116.004C789.094 116.004 774.229 108.822 764.375 98.2996L775.231 83.2673C782.914 91.4516 794.94 98.6337 810.474 98.6337C826.508 98.6337 832.855 90.7835 832.855 83.4344C832.855 60.0508 767.882 74.582 767.882 33.4938C767.882 15.121 784.084 0.923855 808.469 0.923855C825.84 0.923855 839.87 6.43569 850.226 16.4572L839.035 30.9884C830.35 22.3031 818.491 18.2945 806.799 18.2945C795.274 18.2945 787.925 23.8063 787.925 32.1576C787.925 52.8687 852.731 40.0078 852.731 81.5971C852.731 100.137 839.703 116.004 809.638 116.004ZM907.474 116.004C883.255 116.004 865.216 99.1347 865.216 73.5799C865.216 50.1963 882.253 31.3225 906.137 31.3225C930.356 31.3225 945.889 49.8623 945.889 75.2501V79.4258H883.589C884.925 91.6186 894.111 101.64 909.311 101.64C917.161 101.64 926.514 98.4666 932.193 92.7878L940.21 104.313C932.193 111.996 920.334 116.004 907.474 116.004ZM928.853 67.0659C928.519 57.5454 922.005 45.6866 906.137 45.6866C891.105 45.6866 884.257 57.2114 883.422 67.0659H928.853ZM980.738 114H963.2V2.59411H980.738V114ZM1021.03 114H1003.49V2.59411H1021.03V114Z"/>
</mask>
<path d="M69.5062 114H0.858798V2.59411H20.4008V96.7964H69.5062V114ZM95.3286 23.4723C89.4827 23.4723 84.4719 18.6285 84.4719 12.6156C84.4719 6.60272 89.4827 1.75898 95.3286 1.75898C101.341 1.75898 106.185 6.60272 106.185 12.6156C106.185 18.6285 101.341 23.4723 95.3286 23.4723ZM104.181 114H86.6433V33.3268H104.181V114ZM154.491 116.004C140.795 116.004 128.268 111.662 119.917 103.477L127.934 90.7835C133.613 96.6294 144.803 102.141 155.326 102.141C165.848 102.141 171.193 97.6315 171.193 91.2846C171.193 75.4172 122.422 86.7749 122.422 55.8752C122.422 42.6802 133.78 31.3225 154.157 31.3225C167.853 31.3225 178.208 36.1662 185.557 42.6802L178.208 55.0401C173.365 49.5282 164.345 45.3526 154.324 45.3526C145.137 45.3526 139.291 49.5282 139.291 55.2071C139.291 69.5713 188.063 58.8816 188.063 90.9505C188.063 105.148 176.204 116.004 154.491 116.004ZM229.933 116.004C216.404 116.004 209.222 108.655 209.222 95.2932V48.6931H195.86V33.3268H209.222V11.2794H226.759V33.3268H243.128V48.6931H226.759V90.9505C226.759 96.4623 229.432 100.471 234.442 100.471C237.783 100.471 240.956 99.1347 242.293 97.6315L246.468 110.827C243.295 113.833 238.117 116.004 229.933 116.004ZM418.199 114H398.657V31.3225L364.417 114H356.066L321.992 31.3225V114H302.45V2.59411H330.01L360.241 75.9182L390.64 2.59411H418.199V114ZM477.82 116.004C452.266 116.004 436.398 96.7964 436.398 73.5799C436.398 50.5304 452.266 31.3225 477.82 31.3225C503.709 31.3225 519.41 50.5304 519.41 73.5799C519.41 96.7964 503.709 116.004 477.82 116.004ZM477.82 100.471C492.853 100.471 501.204 87.9441 501.204 73.5799C501.204 59.3827 492.853 46.8558 477.82 46.8558C462.955 46.8558 454.604 59.3827 454.604 73.5799C454.604 87.9441 462.955 100.471 477.82 100.471ZM554.693 114H537.155V33.3268H554.693V45.1856C560.705 37.5024 570.393 31.4895 580.916 31.4895V48.8601C579.412 48.5261 577.575 48.3591 575.404 48.3591C568.055 48.3591 558.2 53.3698 554.693 59.0487V114ZM632.306 116.004C608.087 116.004 590.048 99.1347 590.048 73.5799C590.048 50.1963 607.085 31.3225 630.97 31.3225C655.188 31.3225 670.722 49.8623 670.722 75.2501V79.4258H608.421C609.757 91.6186 618.944 101.64 634.143 101.64C641.993 101.64 651.347 98.4666 657.026 92.7878L665.043 104.313C657.026 111.996 645.167 116.004 632.306 116.004ZM653.685 67.0659C653.351 57.5454 646.837 45.6866 630.97 45.6866C615.937 45.6866 609.089 57.2114 608.254 67.0659H653.685ZM708.93 107.653C708.93 119.178 702.416 129.7 693.23 136.214L685.379 129.7C690.724 126.527 696.236 119.679 697.405 114C696.904 114.167 695.568 114.501 694.566 114.501C688.887 114.501 684.544 110.158 684.544 103.978C684.544 97.6315 689.722 92.4537 695.902 92.4537C702.75 92.4537 708.93 97.9656 708.93 107.653ZM1202.92 114H1183.38V31.3225L1149.14 114H1140.79L1106.72 31.3225V114H1087.18V2.59411H1114.73L1144.97 75.9182L1175.37 2.59411H1202.92V114ZM1262.55 116.004C1236.99 116.004 1221.12 96.7964 1221.12 73.5799C1221.12 50.5304 1236.99 31.3225 1262.55 31.3225C1288.43 31.3225 1304.14 50.5304 1304.14 73.5799C1304.14 96.7964 1288.43 116.004 1262.55 116.004ZM1262.55 100.471C1277.58 100.471 1285.93 87.9441 1285.93 73.5799C1285.93 59.3827 1277.58 46.8558 1262.55 46.8558C1247.68 46.8558 1239.33 59.3827 1239.33 73.5799C1239.33 87.9441 1247.68 100.471 1262.55 100.471ZM1339.42 114H1321.88V33.3268H1339.42V45.1856C1345.43 37.5024 1355.12 31.4895 1365.64 31.4895V48.8601C1364.14 48.5261 1362.3 48.3591 1360.13 48.3591C1352.78 48.3591 1342.93 53.3698 1339.42 59.0487V114ZM1417.03 116.004C1392.81 116.004 1374.77 99.1347 1374.77 73.5799C1374.77 50.1963 1391.81 31.3225 1415.7 31.3225C1439.91 31.3225 1455.45 49.8623 1455.45 75.2501V79.4258H1393.15C1394.48 91.6186 1403.67 101.64 1418.87 101.64C1426.72 101.64 1436.07 98.4666 1441.75 92.7878L1449.77 104.313C1441.75 111.996 1429.89 116.004 1417.03 116.004ZM1438.41 67.0659C1438.08 57.5454 1431.56 45.6866 1415.7 45.6866C1400.66 45.6866 1393.81 57.2114 1392.98 67.0659H1438.41Z" fill="white"/>
<path d="M809.638 116.004C789.094 116.004 774.229 108.822 764.375 98.2996L775.231 83.2673C782.914 91.4516 794.94 98.6337 810.474 98.6337C826.508 98.6337 832.855 90.7835 832.855 83.4344C832.855 60.0508 767.882 74.582 767.882 33.4938C767.882 15.121 784.084 0.923855 808.469 0.923855C825.84 0.923855 839.87 6.43569 850.226 16.4572L839.035 30.9884C830.35 22.3031 818.491 18.2945 806.799 18.2945C795.274 18.2945 787.925 23.8063 787.925 32.1576C787.925 52.8687 852.731 40.0078 852.731 81.5971C852.731 100.137 839.703 116.004 809.638 116.004ZM907.474 116.004C883.255 116.004 865.216 99.1347 865.216 73.5799C865.216 50.1963 882.253 31.3225 906.137 31.3225C930.356 31.3225 945.889 49.8623 945.889 75.2501V79.4258H883.589C884.925 91.6186 894.111 101.64 909.311 101.64C917.161 101.64 926.514 98.4666 932.193 92.7878L940.21 104.313C932.193 111.996 920.334 116.004 907.474 116.004ZM928.853 67.0659C928.519 57.5454 922.005 45.6866 906.137 45.6866C891.105 45.6866 884.257 57.2114 883.422 67.0659H928.853ZM980.738 114H963.2V2.59411H980.738V114ZM1021.03 114H1003.49V2.59411H1021.03V114Z" fill="#FB2D2D"/>
<path d="M69.5062 114V116.827H72.3328V114H69.5062ZM0.858798 114H-1.96778V116.827H0.858798V114ZM0.858798 2.5941V-0.232475H-1.96778V2.5941H0.858798ZM20.4008 2.5941H23.2273V-0.232475H20.4008V2.5941ZM20.4008 96.7964H17.5742V99.623H20.4008V96.7964ZM69.5062 96.7964H72.3328V93.9698H69.5062V96.7964ZM69.5062 111.173H0.858798V116.827H69.5062V111.173ZM3.68538 114V2.5941H-1.96778V114H3.68538ZM0.858798 5.42069H20.4008V-0.232475H0.858798V5.42069ZM17.5742 2.5941V96.7964H23.2273V2.5941H17.5742ZM20.4008 99.623H69.5062V93.9698H20.4008V99.623ZM66.6796 96.7964V114H72.3328V96.7964H66.6796ZM104.181 114V116.827H107.007V114H104.181ZM86.6433 114H83.8167V116.827H86.6433V114ZM86.6433 33.3268V30.5002H83.8167V33.3268H86.6433ZM104.181 33.3268H107.007V30.5002H104.181V33.3268ZM95.3286 20.6457C91.0155 20.6457 87.2985 17.0393 87.2985 12.6156H81.6453C81.6453 20.2177 87.9499 26.2989 95.3286 26.2989V20.6457ZM87.2985 12.6156C87.2985 8.19193 91.0155 4.58556 95.3286 4.58556V-1.0676C87.9499 -1.0676 81.6453 5.01352 81.6453 12.6156H87.2985ZM95.3286 4.58556C99.7804 4.58556 103.359 8.1638 103.359 12.6156H109.012C109.012 5.04165 102.903 -1.0676 95.3286 -1.0676V4.58556ZM103.359 12.6156C103.359 17.0675 99.7804 20.6457 95.3286 20.6457V26.2989C102.903 26.2989 109.012 20.1896 109.012 12.6156H103.359ZM104.181 111.173H86.6433V116.827H104.181V111.173ZM89.4698 114V33.3268H83.8167V114H89.4698ZM86.6433 36.1534H104.181V30.5002H86.6433V36.1534ZM101.354 33.3268V114H107.007V33.3268H101.354ZM119.917 103.477L117.527 101.968L116.308 103.898L117.938 105.496L119.917 103.477ZM127.934 90.7835L129.961 88.814L127.46 86.2396L125.544 89.2741L127.934 90.7835ZM185.557 42.6802L187.987 44.1248L189.182 42.1155L187.432 40.5649L185.557 42.6802ZM178.208 55.0401L176.085 56.9059L178.651 59.8259L180.638 56.4847L178.208 55.0401ZM154.491 113.178C141.347 113.178 129.598 109.007 121.895 101.459L117.938 105.496C126.938 114.316 140.242 118.831 154.491 118.831V113.178ZM122.306 104.987L130.324 92.2928L125.544 89.2741L117.527 101.968L122.306 104.987ZM125.906 92.753C132.082 99.1104 143.99 104.968 155.326 104.968V99.3146C145.617 99.3146 135.143 94.1484 129.961 88.814L125.906 92.753ZM155.326 104.968C160.943 104.968 165.566 103.771 168.864 101.382C172.261 98.9209 174.02 95.3492 174.02 91.2846H168.367C168.367 93.5669 167.453 95.4235 165.547 96.8039C163.542 98.2568 160.232 99.3146 155.326 99.3146V104.968ZM174.02 91.2846C174.02 88.4601 172.89 86.1807 171.046 84.4266C169.297 82.7632 166.965 81.6219 164.532 80.7442C159.784 79.0316 153.252 77.8949 147.484 76.4726C141.438 74.9817 135.842 73.1176 131.769 69.9746C127.873 66.9677 125.248 62.7019 125.248 55.8752H119.595C119.595 64.4983 123.067 70.4002 128.316 74.4501C133.387 78.3639 139.985 80.4458 146.131 81.9614C152.556 83.5455 158.216 84.4757 162.614 86.0619C164.753 86.8336 166.231 87.6496 167.15 88.5229C167.973 89.3055 168.367 90.1421 168.367 91.2846H174.02ZM125.248 55.8752C125.248 50.1344 127.701 44.7854 132.457 40.8221C137.235 36.8412 144.484 34.149 154.157 34.149V28.4959C143.452 28.4959 134.834 31.4826 128.838 36.4793C122.821 41.4936 119.595 48.421 119.595 55.8752H125.248ZM154.157 34.149C167.132 34.149 176.828 38.7195 183.683 44.7955L187.432 40.5649C179.589 33.6129 168.574 28.4959 154.157 28.4959V34.149ZM183.128 41.2356L175.779 53.5955L180.638 56.4847L187.987 44.1248L183.128 41.2356ZM180.332 53.1742C174.882 46.9727 165.047 42.526 154.324 42.526V48.1792C163.644 48.1792 171.847 52.0837 176.085 56.9059L180.332 53.1742ZM154.324 42.526C149.339 42.526 144.986 43.6541 141.786 45.8042C138.53 47.9922 136.465 51.2743 136.465 55.2071H142.118C142.118 53.4611 142.976 51.8159 144.939 50.4963C146.959 49.1389 150.122 48.1792 154.324 48.1792V42.526ZM136.465 55.2071C136.465 57.9499 137.686 60.0998 139.546 61.6962C141.297 63.2001 143.617 64.2262 146.021 65.0247C148.458 65.8341 151.251 66.4936 154.106 67.1318C157.006 67.7799 159.983 68.409 162.974 69.1773C168.99 70.7226 174.582 72.7215 178.655 76.0463C182.572 79.2433 185.236 83.7852 185.236 90.9505H190.889C190.889 82.0814 187.457 75.9337 182.23 71.6667C177.158 67.5276 170.557 65.2882 164.38 63.7018C161.275 62.9043 158.155 62.2441 155.34 61.6147C152.479 60.9754 149.939 60.3692 147.803 59.6598C145.634 58.9393 144.144 58.1934 143.228 57.4072C142.421 56.7135 142.118 56.0554 142.118 55.2071H136.465ZM185.236 90.9505C185.236 97.1943 182.66 102.637 177.667 106.584C172.619 110.574 164.903 113.178 154.491 113.178V118.831C165.792 118.831 174.862 116.007 181.172 111.019C187.537 105.988 190.889 98.9039 190.889 90.9505H185.236ZM209.222 48.6931H212.048V45.8665H209.222V48.6931ZM195.86 48.6931H193.033V51.5197H195.86V48.6931ZM195.86 33.3268V30.5002H193.033V33.3268H195.86ZM209.222 33.3268V36.1534H212.048V33.3268H209.222ZM209.222 11.2794V8.45285H206.395V11.2794H209.222ZM226.759 11.2794H229.586V8.45285H226.759V11.2794ZM226.759 33.3268H223.933V36.1534H226.759V33.3268ZM243.128 33.3268H245.954V30.5002H243.128V33.3268ZM243.128 48.6931V51.5197H245.954V48.6931H243.128ZM226.759 48.6931V45.8665H223.933V48.6931H226.759ZM242.293 97.6315L244.987 96.7787L243.486 92.0343L240.18 95.7536L242.293 97.6315ZM246.468 110.827L248.412 112.878L249.697 111.661L249.163 109.974L246.468 110.827ZM229.933 113.178C223.664 113.178 219.307 111.482 216.508 108.667C213.707 105.848 212.048 101.487 212.048 95.2932H206.395C206.395 102.461 208.328 108.456 212.499 112.652C216.674 116.852 222.673 118.831 229.933 118.831V113.178ZM212.048 95.2932V48.6931H206.395V95.2932H212.048ZM209.222 45.8665H195.86V51.5197H209.222V45.8665ZM198.686 48.6931V33.3268H193.033V48.6931H198.686ZM195.86 36.1534H209.222V30.5002H195.86V36.1534ZM212.048 33.3268V11.2794H206.395V33.3268H212.048ZM209.222 14.106H226.759V8.45285H209.222V14.106ZM223.933 11.2794V33.3268H229.586V11.2794H223.933ZM226.759 36.1534H243.128V30.5002H226.759V36.1534ZM240.301 33.3268V48.6931H245.954V33.3268H240.301ZM243.128 45.8665H226.759V51.5197H243.128V45.8665ZM223.933 48.6931V90.9505H229.586V48.6931H223.933ZM223.933 90.9505C223.933 94.1214 224.697 97.1696 226.477 99.4957C228.328 101.913 231.092 103.298 234.442 103.298V97.6444C232.782 97.6444 231.705 97.0246 230.966 96.0596C230.158 95.0035 229.586 93.2914 229.586 90.9505H223.933ZM234.442 103.298C236.476 103.298 238.443 102.894 240.12 102.258C241.753 101.64 243.331 100.717 244.405 99.5094L240.18 95.7536C239.918 96.0488 239.241 96.5461 238.118 96.9716C237.04 97.38 235.75 97.6444 234.442 97.6444V103.298ZM239.598 98.4843L243.773 111.679L249.163 109.974L244.987 96.7787L239.598 98.4843ZM244.524 108.775C242.021 111.146 237.622 113.178 229.933 113.178V118.831C238.612 118.831 244.568 116.52 248.412 112.878L244.524 108.775ZM418.199 114V116.827H421.026V114H418.199ZM398.657 114H395.83V116.827H398.657V114ZM398.657 31.3225H401.484L396.046 30.2409L398.657 31.3225ZM364.417 114V116.827H366.306L367.028 115.082L364.417 114ZM356.066 114L353.452 115.077L354.173 116.827H356.066V114ZM321.992 31.3225L324.606 30.2454L319.166 31.3225H321.992ZM321.992 114V116.827H324.819V114H321.992ZM302.45 114H299.624V116.827H302.45V114ZM302.45 2.5941V-0.232475H299.624V2.5941H302.45ZM330.01 2.5941L332.623 1.51669L331.902 -0.232475H330.01V2.5941ZM360.241 75.9182L357.628 76.9956L360.234 83.3162L362.852 77.0007L360.241 75.9182ZM390.64 2.5941V-0.232475H388.752L388.029 1.51161L390.64 2.5941ZM418.199 2.5941H421.026V-0.232475H418.199V2.5941ZM418.199 111.173H398.657V116.827H418.199V111.173ZM401.484 114V31.3225H395.83V114H401.484ZM396.046 30.2409L361.805 112.918L367.028 115.082L401.268 32.404L396.046 30.2409ZM364.417 111.173H356.066V116.827H364.417V111.173ZM358.679 112.923L324.606 30.2454L319.379 32.3995L353.452 115.077L358.679 112.923ZM319.166 31.3225V114H324.819V31.3225H319.166ZM321.992 111.173H302.45V116.827H321.992V111.173ZM305.277 114V2.5941H299.624V114H305.277ZM302.45 5.42069H330.01V-0.232475H302.45V5.42069ZM327.396 3.67152L357.628 76.9956L362.854 74.8408L332.623 1.51669L327.396 3.67152ZM362.852 77.0007L393.251 3.67661L388.029 1.51161L357.63 74.8357L362.852 77.0007ZM390.64 5.42069H418.199V-0.232475H390.64V5.42069ZM415.372 2.5941V114H421.026V2.5941H415.372ZM477.82 113.178C454.018 113.178 439.225 95.4334 439.225 73.5799H433.572C433.572 98.1594 450.514 118.831 477.82 118.831V113.178ZM439.225 73.5799C439.225 51.9009 454.011 34.149 477.82 34.149V28.4959C450.521 28.4959 433.572 49.1599 433.572 73.5799H439.225ZM477.82 34.149C490.024 34.149 499.658 38.6561 506.256 45.7348C512.878 52.8402 516.583 62.6922 516.583 73.5799H522.236C522.236 61.418 518.091 50.1413 510.391 41.8804C502.667 33.5928 491.506 28.4959 477.82 28.4959V34.149ZM516.583 73.5799C516.583 84.5559 512.875 94.4497 506.253 101.574C499.656 108.671 490.024 113.178 477.82 113.178V118.831C491.506 118.831 502.668 113.734 510.394 105.423C518.094 97.1388 522.236 85.8204 522.236 73.5799H516.583ZM477.82 103.298C486.206 103.298 492.857 99.7672 497.351 94.1846C501.795 88.6643 504.031 81.2798 504.031 73.5799H498.377C498.377 80.2441 496.437 86.3051 492.948 90.6394C489.508 94.9112 484.467 97.6444 477.82 97.6444V103.298ZM504.031 73.5799C504.031 65.9566 501.792 58.6136 497.347 53.1168C492.854 47.5587 486.205 44.0292 477.82 44.0292V49.6824C484.468 49.6824 489.511 52.4164 492.951 56.6711C496.441 60.987 498.377 67.0059 498.377 73.5799H504.031ZM477.82 44.0292C469.509 44.0292 462.903 47.5673 458.435 53.1225C454.016 58.617 451.777 65.9568 451.777 73.5799H457.431C457.431 67.0058 459.367 60.9836 462.84 56.6654C466.264 52.4078 471.267 49.6824 477.82 49.6824V44.0292ZM451.777 73.5799C451.777 81.2797 454.012 88.661 458.431 94.1789C462.9 99.7586 469.508 103.298 477.82 103.298V97.6444C471.268 97.6444 466.267 94.9198 462.844 90.6451C459.371 86.3085 457.431 80.2442 457.431 73.5799H451.777ZM554.693 114V116.827H557.519V114H554.693ZM537.155 114H534.328V116.827H537.155V114ZM537.155 33.3268V30.5002H534.328V33.3268H537.155ZM554.693 33.3268H557.519V30.5002H554.693V33.3268ZM554.693 45.1856H551.866V53.3836L556.919 46.9276L554.693 45.1856ZM580.916 31.4895H583.742V28.6629H580.916V31.4895ZM580.916 48.8601L580.302 51.6194L583.742 52.3838V48.8601H580.916ZM554.693 59.0487L552.288 57.5633L551.866 58.2461V59.0487H554.693ZM554.693 111.173H537.155V116.827H554.693V111.173ZM539.982 114V33.3268H534.328V114H539.982ZM537.155 36.1534H554.693V30.5002H537.155V36.1534ZM551.866 33.3268V45.1856H557.519V33.3268H551.866ZM556.919 46.9276C562.527 39.7607 571.456 34.3161 580.916 34.3161V28.6629C569.33 28.6629 558.884 35.2441 552.467 43.4435L556.919 46.9276ZM578.089 31.4895V48.8601H583.742V31.4895H578.089ZM581.529 46.1009C579.761 45.708 577.704 45.5325 575.404 45.5325V51.1856C577.446 51.1856 579.064 51.3441 580.302 51.6194L581.529 46.1009ZM575.404 45.5325C571.159 45.5325 566.413 46.9556 562.316 49.06C558.245 51.1509 554.413 54.1225 552.288 57.5633L557.097 60.534C558.48 58.296 561.328 55.9227 564.899 54.0886C568.444 52.2678 572.299 51.1856 575.404 51.1856V45.5325ZM551.866 59.0487V114H557.519V59.0487H551.866ZM670.722 79.4258V82.2523H673.548V79.4258H670.722ZM608.421 79.4258V76.5992H605.268L605.611 79.7337L608.421 79.4258ZM657.026 92.7878L659.346 91.1736L657.416 88.3997L655.027 90.7891L657.026 92.7878ZM665.043 104.313L666.999 106.353L668.743 104.682L667.363 102.698L665.043 104.313ZM653.685 67.0659V69.8925H656.613L656.51 66.9668L653.685 67.0659ZM608.254 67.0659L605.438 66.8272L605.178 69.8925H608.254V67.0659ZM632.306 113.178C620.864 113.178 611.035 109.202 604.077 102.36C597.127 95.5257 592.875 85.6681 592.875 73.5799H587.222C587.222 87.0466 591.989 98.4012 600.113 106.391C608.23 114.372 619.529 118.831 632.306 118.831V113.178ZM592.875 73.5799C592.875 51.6135 608.786 34.149 630.97 34.149V28.4959C605.384 28.4959 587.222 48.7791 587.222 73.5799H592.875ZM630.97 34.149C642.309 34.149 651.462 38.4658 657.811 45.6392C664.189 52.8453 667.895 63.123 667.895 75.2501H673.548C673.548 61.9894 669.488 50.3033 662.044 41.8925C654.572 33.4491 643.849 28.4959 630.97 28.4959V34.149ZM667.895 75.2501V79.4258H673.548V75.2501H667.895ZM670.722 76.5992H608.421V82.2523H670.722V76.5992ZM605.611 79.7337C607.096 93.2848 617.428 104.467 634.143 104.467V98.8135C620.46 98.8135 612.418 89.9524 611.231 79.1178L605.611 79.7337ZM634.143 104.467C642.591 104.467 652.717 101.094 659.024 94.7865L655.027 90.7891C649.976 95.8395 641.395 98.8135 634.143 98.8135V104.467ZM654.705 94.4019L662.722 105.927L667.363 102.698L659.346 91.1736L654.705 94.4019ZM663.087 102.272C655.717 109.335 644.624 113.178 632.306 113.178V118.831C645.709 118.831 658.334 114.656 666.999 106.353L663.087 102.272ZM656.51 66.9668C656.324 61.6541 654.422 55.6549 650.275 50.9395C646.063 46.15 639.683 42.8601 630.97 42.8601V48.5132C638.124 48.5132 642.934 51.1527 646.03 54.6727C649.19 58.2668 650.713 62.9572 650.86 67.165L656.51 66.9668ZM630.97 42.8601C622.652 42.8601 616.417 46.0819 612.185 50.7917C608.015 55.4337 605.899 61.3895 605.438 66.8272L611.071 67.3046C611.445 62.8877 613.17 58.154 616.391 54.5699C619.55 51.0538 624.255 48.5132 630.97 48.5132V42.8601ZM608.254 69.8925H653.685V64.2393H608.254V69.8925ZM693.23 136.214L691.425 138.39L693.095 139.775L694.865 138.52L693.23 136.214ZM685.379 129.7L683.936 127.27L680.49 129.316L683.574 131.876L685.379 129.7ZM697.405 114L700.174 114.57L701.162 109.768L696.511 111.318L697.405 114ZM706.103 107.653C706.103 118.099 700.177 127.823 691.595 133.909L694.865 138.52C704.655 131.578 711.757 120.257 711.757 107.653H706.103ZM695.035 134.039L687.184 127.525L683.574 131.876L691.425 138.39L695.035 134.039ZM686.823 132.131C689.856 130.33 692.825 127.565 695.189 124.525C697.539 121.504 699.472 117.979 700.174 114.57L694.637 113.43C694.169 115.7 692.762 118.438 690.727 121.054C688.707 123.652 686.248 125.897 683.936 127.27L686.823 132.131ZM696.511 111.318C696.392 111.358 696.049 111.456 695.619 111.541C695.178 111.63 694.799 111.674 694.566 111.674V117.328C695.996 117.328 697.657 116.896 698.299 116.682L696.511 111.318ZM694.566 111.674C690.539 111.674 687.371 108.689 687.371 103.978H681.718C681.718 111.627 687.235 117.328 694.566 117.328V111.674ZM687.371 103.978C687.371 99.1657 691.31 95.2803 695.902 95.2803V89.6272C688.134 89.6272 681.718 96.0973 681.718 103.978H687.371ZM695.902 95.2803C700.992 95.2803 706.103 99.3223 706.103 107.653H711.757C711.757 96.6088 704.508 89.6272 695.902 89.6272V95.2803ZM764.375 98.2996L762.083 96.6447L760.72 98.5323L762.311 100.232L764.375 98.2996ZM775.231 83.2673L777.292 81.3327L774.946 78.8341L772.94 81.6124L775.231 83.2673ZM850.226 16.4572L852.465 18.1819L854.005 16.1817L852.191 14.426L850.226 16.4572ZM839.035 30.9884L837.036 32.9871L839.311 35.2622L841.274 32.7131L839.035 30.9884ZM809.638 113.178C789.806 113.178 775.712 106.27 766.438 96.3675L762.311 100.232C772.746 111.374 788.382 118.831 809.638 118.831V113.178ZM766.666 99.9546L777.523 84.9223L772.94 81.6124L762.083 96.6447L766.666 99.9546ZM773.17 85.202C781.281 93.8411 794.016 101.46 810.474 101.46V95.8071C795.865 95.8071 784.548 89.0621 777.292 81.3327L773.17 85.202ZM810.474 101.46C818.929 101.46 825.214 99.39 829.446 95.9946C833.711 92.573 835.682 87.9598 835.682 83.4344H830.028C830.028 86.258 828.826 89.2445 825.908 91.5853C822.958 93.9522 818.052 95.8071 810.474 95.8071V101.46ZM835.682 83.4344C835.682 79.7688 834.376 76.7607 832.138 74.3408C829.972 71.9993 827.019 70.2962 823.801 68.9397C817.48 66.2746 808.946 64.511 801.112 62.3762C793.022 60.1719 785.388 57.5216 779.779 53.1193C774.344 48.8534 770.709 42.8651 770.709 33.4938H765.056C765.056 44.6666 769.541 52.27 776.289 57.5662C782.863 62.7262 791.472 65.6087 799.625 67.8305C808.034 70.1218 815.744 71.6779 821.605 74.1488C824.479 75.3603 826.601 76.6794 827.988 78.1794C829.303 79.6011 830.028 81.2541 830.028 83.4344H835.682ZM770.709 33.4938C770.709 17.1707 785.106 3.75043 808.469 3.75043V-1.90273C783.061 -1.90273 765.056 13.0713 765.056 33.4938H770.709ZM808.469 3.75043C825.206 3.75043 838.499 9.04226 848.26 18.4884L852.191 14.426C841.241 3.82912 826.474 -1.90273 808.469 -1.90273V3.75043ZM847.986 14.7326L836.795 29.2638L841.274 32.7131L852.465 18.1819L847.986 14.7326ZM841.034 28.9897C831.733 19.6893 819.111 15.4679 806.799 15.4679V21.1211C817.871 21.1211 828.966 24.9169 837.036 32.9871L841.034 28.9897ZM806.799 15.4679C800.622 15.4679 795.258 16.9411 791.361 19.8209C787.387 22.7569 785.099 27.0539 785.099 32.1576H790.752C790.752 28.9101 792.138 26.2755 794.72 24.3677C797.378 22.4039 801.451 21.1211 806.799 21.1211V15.4679ZM785.099 32.1576C785.099 39.2838 790.848 43.0094 797.029 45.4068C800.23 46.6486 803.911 47.6802 807.718 48.6716C811.581 49.6774 815.545 50.635 819.56 51.7684C827.601 54.0377 835.219 56.852 840.816 61.4276C846.258 65.8763 849.904 72.0777 849.904 81.5971H855.558C855.558 70.3218 851.103 62.5349 844.394 57.0507C837.84 51.6936 829.256 48.6307 821.096 46.3277C817.011 45.1749 812.874 44.1725 809.142 43.2008C805.355 42.2147 801.947 41.2511 799.073 40.1363C793.103 37.8204 790.752 35.387 790.752 32.1576H785.099ZM849.904 81.5971C849.904 90.1847 846.905 97.9756 840.573 103.648C834.217 109.342 824.189 113.178 809.638 113.178V118.831C825.152 118.831 836.671 114.733 844.345 107.858C852.043 100.962 855.558 91.5493 855.558 81.5971H849.904ZM945.889 79.4258V82.2523H948.716V79.4258H945.889ZM883.589 79.4258V76.5992H880.436L880.779 79.7337L883.589 79.4258ZM932.193 92.7878L934.514 91.1736L932.584 88.3997L930.195 90.7891L932.193 92.7878ZM940.21 104.313L942.166 106.353L943.911 104.682L942.531 102.698L940.21 104.313ZM928.853 67.0659V69.8925H931.78L931.678 66.9668L928.853 67.0659ZM883.422 67.0659L880.605 66.8272L880.346 69.8925H883.422V67.0659ZM907.474 113.178C896.031 113.178 886.202 109.202 879.245 102.36C872.295 95.5257 868.043 85.6681 868.043 73.5799H862.39C862.39 87.0466 867.156 98.4012 875.281 106.391C883.397 114.372 894.697 118.831 907.474 118.831V113.178ZM868.043 73.5799C868.043 51.6135 883.954 34.149 906.137 34.149V28.4959C880.552 28.4959 862.39 48.7791 862.39 73.5799H868.043ZM906.137 34.149C917.477 34.149 926.63 38.4658 932.979 45.6392C939.356 52.8453 943.063 63.123 943.063 75.2501H948.716C948.716 61.9894 944.656 50.3033 937.212 41.8925C929.739 33.4491 919.017 28.4959 906.137 28.4959V34.149ZM943.063 75.2501V79.4258H948.716V75.2501H943.063ZM945.889 76.5992H883.589V82.2523H945.889V76.5992ZM880.779 79.7337C882.264 93.2848 892.595 104.467 909.311 104.467V98.8135C895.628 98.8135 887.586 89.9524 886.399 79.1178L880.779 79.7337ZM909.311 104.467C917.759 104.467 927.885 101.094 934.192 94.7865L930.195 90.7891C925.144 95.8395 916.563 98.8135 909.311 98.8135V104.467ZM929.873 94.4019L937.89 105.927L942.531 102.698L934.514 91.1736L929.873 94.4019ZM938.255 102.272C930.885 109.335 919.792 113.178 907.474 113.178V118.831C920.877 118.831 933.502 114.656 942.166 106.353L938.255 102.272ZM931.678 66.9668C931.491 61.6541 929.589 55.6549 925.443 50.9395C921.231 46.15 914.85 42.8601 906.137 42.8601V48.5132C913.292 48.5132 918.102 51.1527 921.197 54.6727C924.358 58.2668 925.88 62.9572 926.028 67.165L931.678 66.9668ZM906.137 42.8601C897.819 42.8601 891.585 46.0819 887.353 50.7917C883.182 55.4337 881.066 61.3895 880.605 66.8272L886.238 67.3046C886.613 62.8877 888.338 58.154 891.558 54.5699C894.717 51.0538 899.423 48.5132 906.137 48.5132V42.8601ZM883.422 69.8925H928.853V64.2393H883.422V69.8925ZM980.738 114V116.827H983.564V114H980.738ZM963.2 114H960.373V116.827H963.2V114ZM963.2 2.5941V-0.232475H960.373V2.5941H963.2ZM980.738 2.5941H983.564V-0.232475H980.738V2.5941ZM980.738 111.173H963.2V116.827H980.738V111.173ZM966.027 114V2.5941H960.373V114H966.027ZM963.2 5.42069H980.738V-0.232475H963.2V5.42069ZM977.911 2.5941V114H983.564V2.5941H977.911ZM1021.03 114V116.827H1023.85V114H1021.03ZM1003.49 114H1000.66V116.827H1003.49V114ZM1003.49 2.5941V-0.232475H1000.66V2.5941H1003.49ZM1021.03 2.5941H1023.85V-0.232475H1021.03V2.5941ZM1021.03 111.173H1003.49V116.827H1021.03V111.173ZM1006.31 114V2.5941H1000.66V114H1006.31ZM1003.49 5.42069H1021.03V-0.232475H1003.49V5.42069ZM1018.2 2.5941V114H1023.85V2.5941H1018.2ZM1202.92 114V116.827H1205.75V114H1202.92ZM1183.38 114H1180.56V116.827H1183.38V114ZM1183.38 31.3225H1186.21L1180.77 30.2409L1183.38 31.3225ZM1149.14 114V116.827H1151.03L1151.75 115.082L1149.14 114ZM1140.79 114L1138.18 115.077L1138.9 116.827H1140.79V114ZM1106.72 31.3225L1109.33 30.2454L1103.89 31.3225H1106.72ZM1106.72 114V116.827H1109.54V114H1106.72ZM1087.18 114H1084.35V116.827H1087.18V114ZM1087.18 2.5941V-0.232475H1084.35V2.5941H1087.18ZM1114.73 2.5941L1117.35 1.51669L1116.63 -0.232475H1114.73V2.5941ZM1144.97 75.9182L1142.35 76.9956L1144.96 83.3162L1147.58 77.0007L1144.97 75.9182ZM1175.37 2.5941V-0.232475H1173.48L1172.75 1.51161L1175.37 2.5941ZM1202.92 2.5941H1205.75V-0.232475H1202.92V2.5941ZM1202.92 111.173H1183.38V116.827H1202.92V111.173ZM1186.21 114V31.3225H1180.56V114H1186.21ZM1180.77 30.2409L1146.53 112.918L1151.75 115.082L1185.99 32.404L1180.77 30.2409ZM1149.14 111.173H1140.79V116.827H1149.14V111.173ZM1143.4 112.923L1109.33 30.2454L1104.1 32.3995L1138.18 115.077L1143.4 112.923ZM1103.89 31.3225V114H1109.54V31.3225H1103.89ZM1106.72 111.173H1087.18V116.827H1106.72V111.173ZM1090 114V2.5941H1084.35V114H1090ZM1087.18 5.42069H1114.73V-0.232475H1087.18V5.42069ZM1112.12 3.67152L1142.35 76.9956L1147.58 74.8408L1117.35 1.51669L1112.12 3.67152ZM1147.58 77.0007L1177.98 3.67661L1172.75 1.51161L1142.36 74.8357L1147.58 77.0007ZM1175.37 5.42069H1202.92V-0.232475H1175.37V5.42069ZM1200.1 2.5941V114H1205.75V2.5941H1200.1ZM1262.55 113.178C1238.74 113.178 1223.95 95.4334 1223.95 73.5799H1218.3C1218.3 98.1594 1235.24 118.831 1262.55 118.831V113.178ZM1223.95 73.5799C1223.95 51.9009 1238.74 34.149 1262.55 34.149V28.4959C1235.25 28.4959 1218.3 49.1599 1218.3 73.5799H1223.95ZM1262.55 34.149C1274.75 34.149 1284.38 38.6561 1290.98 45.7348C1297.6 52.8402 1301.31 62.6922 1301.31 73.5799H1306.96C1306.96 61.418 1302.82 50.1413 1295.12 41.8804C1287.39 33.5928 1276.23 28.4959 1262.55 28.4959V34.149ZM1301.31 73.5799C1301.31 84.5559 1297.6 94.4497 1290.98 101.574C1284.38 108.671 1274.75 113.178 1262.55 113.178V118.831C1276.23 118.831 1287.39 113.734 1295.12 105.423C1302.82 97.1388 1306.96 85.8204 1306.96 73.5799H1301.31ZM1262.55 103.298C1270.93 103.298 1277.58 99.7672 1282.08 94.1846C1286.52 88.6643 1288.76 81.2798 1288.76 73.5799H1283.1C1283.1 80.2441 1281.16 86.3051 1277.67 90.6394C1274.23 94.9112 1269.19 97.6444 1262.55 97.6444V103.298ZM1288.76 73.5799C1288.76 65.9566 1286.52 58.6136 1282.07 53.1168C1277.58 47.5587 1270.93 44.0292 1262.55 44.0292V49.6824C1269.19 49.6824 1274.24 52.4164 1277.68 56.6711C1281.17 60.987 1283.1 67.0059 1283.1 73.5799H1288.76ZM1262.55 44.0292C1254.23 44.0292 1247.63 47.5673 1243.16 53.1225C1238.74 58.617 1236.5 65.9568 1236.5 73.5799H1242.16C1242.16 67.0058 1244.09 60.9836 1247.57 56.6654C1250.99 52.4078 1255.99 49.6824 1262.55 49.6824V44.0292ZM1236.5 73.5799C1236.5 81.2797 1238.74 88.661 1243.16 94.1789C1247.63 99.7586 1254.23 103.298 1262.55 103.298V97.6444C1255.99 97.6444 1250.99 94.9198 1247.57 90.6451C1244.1 86.3085 1242.16 80.2442 1242.16 73.5799H1236.5ZM1339.42 114V116.827H1342.24V114H1339.42ZM1321.88 114H1319.05V116.827H1321.88V114ZM1321.88 33.3268V30.5002H1319.05V33.3268H1321.88ZM1339.42 33.3268H1342.24V30.5002H1339.42V33.3268ZM1339.42 45.1856H1336.59V53.3836L1341.64 46.9276L1339.42 45.1856ZM1365.64 31.4895H1368.47V28.6629H1365.64V31.4895ZM1365.64 48.8601L1365.03 51.6194L1368.47 52.3838V48.8601H1365.64ZM1339.42 59.0487L1337.01 57.5633L1336.59 58.2461V59.0487H1339.42ZM1339.42 111.173H1321.88V116.827H1339.42V111.173ZM1324.71 114V33.3268H1319.05V114H1324.71ZM1321.88 36.1534H1339.42V30.5002H1321.88V36.1534ZM1336.59 33.3268V45.1856H1342.24V33.3268H1336.59ZM1341.64 46.9276C1347.25 39.7607 1356.18 34.3161 1365.64 34.3161V28.6629C1354.06 28.6629 1343.61 35.2441 1337.19 43.4435L1341.64 46.9276ZM1362.81 31.4895V48.8601H1368.47V31.4895H1362.81ZM1366.25 46.1009C1364.49 45.708 1362.43 45.5325 1360.13 45.5325V51.1856C1362.17 51.1856 1363.79 51.3441 1365.03 51.6194L1366.25 46.1009ZM1360.13 45.5325C1355.88 45.5325 1351.14 46.9556 1347.04 49.06C1342.97 51.1509 1339.14 54.1225 1337.01 57.5633L1341.82 60.534C1343.21 58.296 1346.05 55.9227 1349.62 54.0886C1353.17 52.2678 1357.02 51.1856 1360.13 51.1856V45.5325ZM1336.59 59.0487V114H1342.24V59.0487H1336.59ZM1455.45 79.4258V82.2523H1458.27V79.4258H1455.45ZM1393.15 79.4258V76.5992H1389.99L1390.34 79.7337L1393.15 79.4258ZM1441.75 92.7878L1444.07 91.1736L1442.14 88.3997L1439.75 90.7891L1441.75 92.7878ZM1449.77 104.313L1451.72 106.353L1453.47 104.682L1452.09 102.698L1449.77 104.313ZM1438.41 67.0659V69.8925H1441.34L1441.24 66.9668L1438.41 67.0659ZM1392.98 67.0659L1390.16 66.8272L1389.9 69.8925H1392.98V67.0659ZM1417.03 113.178C1405.59 113.178 1395.76 109.202 1388.8 102.36C1381.85 95.5257 1377.6 85.6681 1377.6 73.5799H1371.95C1371.95 87.0466 1376.71 98.4012 1384.84 106.391C1392.95 114.372 1404.25 118.831 1417.03 118.831V113.178ZM1377.6 73.5799C1377.6 51.6135 1393.51 34.149 1415.7 34.149V28.4959C1390.11 28.4959 1371.95 48.7791 1371.95 73.5799H1377.6ZM1415.7 34.149C1427.03 34.149 1436.19 38.4658 1442.54 45.6392C1448.91 52.8453 1452.62 63.123 1452.62 75.2501H1458.27C1458.27 61.9894 1454.21 50.3033 1446.77 41.8925C1439.3 33.4491 1428.57 28.4959 1415.7 28.4959V34.149ZM1452.62 75.2501V79.4258H1458.27V75.2501H1452.62ZM1455.45 76.5992H1393.15V82.2523H1455.45V76.5992ZM1390.34 79.7337C1391.82 93.2848 1402.15 104.467 1418.87 104.467V98.8135C1405.19 98.8135 1397.14 89.9524 1395.96 79.1178L1390.34 79.7337ZM1418.87 104.467C1427.32 104.467 1437.44 101.094 1443.75 94.7865L1439.75 90.7891C1434.7 95.8395 1426.12 98.8135 1418.87 98.8135V104.467ZM1439.43 94.4019L1447.45 105.927L1452.09 102.698L1444.07 91.1736L1439.43 94.4019ZM1447.81 102.272C1440.44 109.335 1429.35 113.178 1417.03 113.178V118.831C1430.43 118.831 1443.06 114.656 1451.72 106.353L1447.81 102.272ZM1441.24 66.9668C1441.05 61.6541 1439.15 55.6549 1435 50.9395C1430.79 46.15 1424.41 42.8601 1415.7 42.8601V48.5132C1422.85 48.5132 1427.66 51.1527 1430.76 54.6727C1433.92 58.2668 1435.44 62.9572 1435.59 67.165L1441.24 66.9668ZM1415.7 42.8601C1407.38 42.8601 1401.14 46.0819 1396.91 50.7917C1392.74 55.4337 1390.62 61.3895 1390.16 66.8272L1395.8 67.3046C1396.17 62.8877 1397.9 58.154 1401.12 54.5699C1404.28 51.0538 1408.98 48.5132 1415.7 48.5132V42.8601ZM1392.98 69.8925H1438.41V64.2393H1392.98V69.8925Z" fill="black" mask="url(#path-1-outside-1_1369_19)"/>
</svg>